<svg width="90" height="90" viewBox="0 0 90 90" fill="none" xmlns="http://www.w3.org/2000/svg">
<g clip-path="url(#clip0)">
<path d="M90 37.7419H86.7381L81.8765 40.3C81.3293 39.998 80.7601 39.7422 80.1463 39.5883L74.0308 38.0581V37.3627C76.7363 35.4745 78.3871 32.3551 78.3871 29.0323V26.4948C78.3871 20.8556 73.9685 16.1364 68.5377 15.972C68.262 15.9649 67.9905 15.9748 67.7176 15.9883L69.3032 12.2763L61.6163 4.59158L57.085 7.54087C55.3633 6.57124 53.5424 5.81637 51.6513 5.2869L50.5322 0H39.4693L38.3501 5.28832C36.459 5.81779 34.6367 6.57266 32.9165 7.54229L28.3851 4.59299L20.7046 12.2735L22.2633 15.9883C22.2037 15.9855 22.147 15.9748 22.0875 15.9734C19.3076 15.8926 16.6893 16.9069 14.7004 18.8377C12.7087 20.767 11.6129 23.3562 11.6129 26.129V29.0323C11.6129 32.3551 13.2623 35.4731 15.9677 37.3613V38.0581L11.9786 39.0553L4.74822 34.8387H0V64.9179L14.2808 69.6774H17.0621L17.4094 68.4611L21.787 71.0886C21.8585 73.4688 23.7673 75.3839 26.1453 75.4676C26.229 77.8357 28.1321 79.7388 30.5002 79.8224C30.5838 82.1905 32.4869 84.0936 34.855 84.1772C34.9415 86.6006 36.9261 88.5484 39.3693 88.5484C40.2766 88.5484 41.1661 88.2656 41.9139 87.7616L43.1997 88.8971C44.0056 89.6066 45.0432 90 46.1206 90H46.3892C48.8048 90 50.7703 88.0473 50.8008 85.6395C53.1901 85.609 55.1251 83.674 55.1556 81.2847C57.5464 81.2542 59.4828 79.3163 59.5105 76.9256C61.9232 76.8689 63.871 74.8977 63.871 72.4715C63.871 72.3255 63.8639 72.1816 63.849 72.0363L90 58.9619V37.7419ZM75.4839 26.4948V29.0323C75.4839 31.6087 74.0918 34.0158 71.8506 35.3136L71.1248 35.7332L71.1305 40.3269L78.3828 42.1386L62.4194 50.5407V46.6302C62.4194 44.6789 61.6312 42.892 60.3405 41.5716L65.3226 40.3269V35.7297L64.5982 35.3108C62.3584 34.0158 60.9677 31.6087 60.9677 29.0323V26.129C60.9677 24.1494 61.7503 22.298 63.1728 20.9194C64.5939 19.5415 66.4793 18.7987 68.4505 18.8752C72.3283 18.9915 75.4839 22.41 75.4839 26.4948ZM47.1888 49.3995L40.6175 47.2993C37.6229 46.3396 34.3815 46.1964 31.316 46.8755L30.4839 47.0598V46.6302C30.4839 44.6286 31.8412 42.8906 33.7819 42.4044L42.0968 40.3269V35.7297L41.3724 35.3108C39.1326 34.0158 37.7419 31.6087 37.7419 29.0323V26.129C37.7419 24.1494 38.5244 22.298 39.947 20.9194C41.3681 19.5415 43.2656 18.7987 45.2247 18.8752C49.1025 18.9915 52.2581 22.41 52.2581 26.4948V29.0323C52.2581 31.6087 50.866 34.0158 48.6248 35.3136L47.899 35.7332L47.9046 40.3269L56.2181 42.4044C58.1588 42.8906 59.5161 44.6286 59.5161 46.6302V52.0695L59.1575 52.2581H58.2679L49.3435 49.7078C48.6404 49.5086 47.916 49.4271 47.1888 49.3995ZM30.8092 21.726C33.5352 16.4441 39.022 13.0645 45 13.0645C50.9213 13.0645 56.3847 16.3987 59.1313 21.609C58.4402 22.9947 58.0645 24.5293 58.0645 26.129V29.0323C58.0645 32.3551 59.7139 35.4731 62.4194 37.3613V38.0581L56.6129 39.5118L50.805 38.0581V37.3627C53.5105 35.4745 55.1613 32.3551 55.1613 29.0323V26.4948C55.1613 20.8556 50.7427 16.1364 45.3119 15.972C42.5334 15.8905 39.9137 16.9055 37.9248 18.8362C35.9345 20.767 34.8387 23.3562 34.8387 26.129V29.0323C34.8387 32.3551 36.4881 35.4731 39.1936 37.3613V38.0581L33.3871 39.5118L27.5792 38.0581V37.3627C30.2847 35.4745 31.9355 32.3551 31.9355 29.0323V26.4948C31.9355 24.7866 31.5244 23.1649 30.8092 21.726ZM24.1331 12.9469L28.7707 8.30921L32.8527 10.9658L33.6338 10.4866C35.5907 9.28735 37.7058 8.40915 39.9194 7.87968L40.8124 7.66562L41.8225 2.90323H48.1789L49.1861 7.6642L50.0792 7.87755C52.2928 8.40773 54.4078 9.28593 56.3648 10.4852L57.1459 10.9644L61.2279 8.30779L65.8598 12.9412L64.2133 16.7963C63.0927 17.2783 62.0536 17.9566 61.1492 18.8334C61.0897 18.8915 61.0386 18.9539 60.9805 19.0134C57.5606 13.577 51.5145 10.1613 45 10.1613C38.4387 10.1613 32.3756 13.6089 28.9642 19.1006C28.0513 18.1452 26.9654 17.3712 25.7619 16.8303L24.1331 12.9469ZM18.871 40.3269V35.7297L18.1466 35.3108C15.9068 34.0158 14.5161 31.6087 14.5161 29.0323V26.129C14.5161 24.1494 15.2986 22.298 16.7212 20.9194C18.1423 19.5415 20.032 18.7987 21.9989 18.8752C25.8767 18.9915 29.0323 22.41 29.0323 26.4948V29.0323C29.0323 31.6087 27.6402 34.0158 25.399 35.3136L24.6732 35.7332L24.6788 40.3269L29.6595 41.5716C28.3688 42.892 27.5806 44.6789 27.5806 46.6302V47.7055L23.0529 48.712L23.1705 48.3009L23.2258 45.6181L15.5701 41.152L18.871 40.3269ZM2.90323 37.7419H3.96146L14.4013 43.8312L9.13354 64.9016L2.90323 62.8241V37.7419ZM14.7514 66.7742L11.8943 65.8223L17.0118 45.3544L20.3226 47.2852V47.6998L14.8734 66.7742H14.7514ZM24.6774 70.9533C24.6774 70.5251 24.8504 70.1055 25.1537 69.8022L27.7054 67.2505C28.0088 66.9471 28.4284 66.7742 28.8565 66.7742C29.7538 66.7742 30.4839 67.5043 30.4839 68.4016C30.4839 68.8297 30.3109 69.2493 30.0076 69.5527L27.4559 72.1043C27.1525 72.4077 26.7329 72.5807 26.3048 72.5807C25.4075 72.5807 24.6774 71.8506 24.6774 70.9533ZM29.0323 75.3081C29.0323 74.88 29.2052 74.4604 29.5086 74.157L32.0602 71.6053C32.3636 71.302 32.7832 71.129 33.2113 71.129C34.1087 71.129 34.8387 71.8591 34.8387 72.7564C34.8387 73.1845 34.6658 73.6041 34.3624 73.9075L31.8107 76.4592C31.5074 76.7625 31.0878 76.9355 30.6597 76.9355C29.7623 76.9355 29.0323 76.2054 29.0323 75.3081ZM33.3871 79.6629C33.3871 79.2348 33.56 78.8152 33.8634 78.5118L36.4151 75.9602C36.7184 75.6568 37.138 75.4839 37.5662 75.4839C38.4635 75.4839 39.1936 76.2139 39.1936 77.1113C39.1936 77.5394 39.0206 77.959 38.7172 78.2624L36.1656 80.814C35.8622 81.1174 35.4426 81.2903 35.0145 81.2903C34.1172 81.2903 33.3871 80.5603 33.3871 79.6629ZM39.3693 85.6452C38.472 85.6452 37.7419 84.9151 37.7419 84.0178C37.7419 83.5897 37.9149 83.1701 38.2182 82.8667L40.7699 80.315C41.0733 80.0117 41.4929 79.8387 41.921 79.8387C42.8183 79.8387 43.5484 80.5688 43.5484 81.4661C43.5484 81.8942 43.3754 82.3138 43.0721 82.6172L40.5204 85.1689C40.217 85.4722 39.7974 85.6452 39.3693 85.6452ZM46.3892 87.0968H46.1206C45.7506 87.0968 45.3962 86.9621 45.1205 86.7176L44.0346 85.76L45.1247 84.6699C45.5139 84.2807 45.8158 83.8179 46.0391 83.321L47.3589 84.4197C47.7041 84.7074 47.9032 85.1313 47.9032 85.5828C47.9032 86.4177 47.2242 87.0968 46.3892 87.0968ZM59.407 74.0323H59.1561C58.7917 74.0323 58.4359 73.9033 58.1574 73.6694L50.2855 67.1095L48.4256 69.3407L56.07 75.71C56.4137 75.9977 56.6129 76.4216 56.6129 76.8731C56.6129 77.7081 55.9339 78.3871 55.0989 78.3871H54.7821C54.4298 78.3871 54.0853 78.2624 53.8139 78.0355L45.9292 71.4657L44.0694 73.697L51.7137 80.0669C52.0589 80.3526 52.2581 80.7765 52.2581 81.228C52.2581 82.0629 51.579 82.7419 50.7441 82.7419C50.187 82.7419 49.644 82.5442 49.2166 82.1891L45.9767 79.4886C45.263 78.0299 43.7965 77.0127 42.0791 76.9518C41.9954 74.5837 40.0923 72.6806 37.7242 72.5969C37.6406 70.2289 35.7375 68.3258 33.3694 68.2421C33.2843 65.8187 31.2997 63.871 28.8565 63.871C27.6636 63.871 26.4962 64.3544 25.6527 65.1978L23.1011 67.7495C22.9487 67.9019 22.8225 68.0748 22.6942 68.2464L18.2352 65.5707L22.1442 51.8895L31.944 49.7107C34.5148 49.1358 37.2252 49.2606 39.7322 50.0629L41.8707 50.7469L34.6211 54.3717C32.9647 55.2017 31.9355 56.8681 31.9355 58.7209V59.0079C31.9355 61.6893 34.1172 63.871 36.7985 63.871C37.6796 63.871 38.5464 63.6314 39.2999 63.1771L44.7051 59.9357C45.791 59.2851 47.2483 59.4275 48.186 60.271L60.451 71.3091C60.7792 71.6068 60.9677 72.0292 60.9677 72.4715C60.9677 73.3327 60.2682 74.0323 59.407 74.0323ZM87.0968 57.1672L62.6412 69.396C62.5618 69.3117 62.4789 69.2316 62.3917 69.1536L50.1288 58.1156C49.0543 57.1459 47.6651 56.6129 46.2177 56.6129C45.1595 56.6129 44.1204 56.9007 43.2103 57.4464L37.8029 60.6892C37.4995 60.8721 37.1529 60.9677 36.7985 60.9677C35.7169 60.9677 34.8387 60.0895 34.8387 59.0079V58.7209C34.8387 57.9731 35.2541 57.3026 35.9217 56.9687L44.019 52.9201C45.4047 52.2262 47.0498 52.0709 48.5433 52.5005L57.6655 55.106L59.8748 55.1613L87.0968 40.8337V57.1672Z" fill="white"/>
</g>
<defs>
<clipPath id="clip0">
<rect width="90" height="90" fill="white"/>
</clipPath>
</defs>
</svg>
