<svg width="90" height="90" viewBox="0 0 90 90" fill="none" xmlns="http://www.w3.org/2000/svg">
<g clip-path="url(#clip0)">
<path d="M42 81H39.5805L41.5305 75.129C41.8378 74.2102 41.9944 73.2478 41.994 72.279V61.6065C42.0011 59.2183 41.0514 56.9267 39.357 55.2435L27.3045 43.1895C25.0691 40.9472 21.4391 40.9414 19.1968 43.1768C18.3651 44.0061 17.808 45.0707 17.601 46.227L12 41.319V19.5C12 16.1863 9.31369 13.5 6 13.5C2.68631 13.5 9.10222e-07 16.1863 9.10222e-07 19.5V44.3775C-0.00074909 46.0431 0.462001 47.676 1.3365 49.0935L11.109 64.9785C11.6931 65.9252 12.0017 67.0161 12 68.1285V81H10.5C9.67163 81 9 81.6716 9 82.5V88.5C9 89.3284 9.67163 90 10.5 90H42C42.8284 90 43.5 89.3284 43.5 88.5V82.5C43.5 81.6716 42.8284 81 42 81ZM3.891 47.5215C3.30806 46.5765 2.99944 45.4879 3 44.3775V19.5C3 17.8431 4.34306 16.5 6 16.5C7.65694 16.5 9 17.8431 9 19.5V42C8.99906 42.4326 9.18638 42.8443 9.513 43.128L21.471 53.5935L28.9395 61.0605L31.0605 58.9395L21.3105 49.1895C20.2624 48.0952 20.2997 46.3586 21.3939 45.3105C22.455 44.2941 24.1284 44.2941 25.1895 45.3105L37.242 57.3645C38.3717 58.4865 39.0049 60.0142 39 61.6065V72.282C39.0026 72.9264 38.9012 73.5671 38.7 74.1795L36.42 81H15V68.1225C15.0008 66.4569 14.538 64.824 13.6635 63.4065L3.891 47.5215ZM40.5 87H12V84H40.5V87Z" fill="white"/>
<path d="M66 0H24C23.1716 0 22.5 0.671625 22.5 1.5V33C22.5 33.8284 23.1716 34.5 24 34.5H66C66.8284 34.5 67.5 33.8284 67.5 33V1.5C67.5 0.671625 66.8284 0 66 0ZM39 3H51V9H39V3ZM64.5 31.5H25.5V3H36V10.5C36 11.3284 36.6716 12 37.5 12H52.5C53.3284 12 54 11.3284 54 10.5V3H64.5V31.5Z" fill="white"/>
<path d="M31.5 25.5H28.5V28.5H31.5V25.5Z" fill="white"/>
<path d="M37.5 25.5H34.5V28.5H37.5V25.5Z" fill="white"/>
<path d="M43.5 25.5H40.5V28.5H43.5V25.5Z" fill="white"/>
<path d="M66 36H24V39H66V36Z" fill="white"/>
<path d="M84 13.5C80.6863 13.5 78 16.1863 78 19.5V41.319L72.393 46.227C71.8352 43.1102 68.8564 41.0359 65.7397 41.5937C64.5836 41.8007 63.5188 42.3577 62.6895 43.1895L50.637 55.242C48.9427 56.9257 47.9931 59.2178 48 61.6065V72.282C47.9996 73.2508 48.1562 74.2133 48.4635 75.132L50.4195 81H48C47.1716 81 46.5 81.6716 46.5 82.5V88.5C46.5 89.3284 47.1716 90 48 90H79.5C80.3284 90 81 89.3284 81 88.5V82.5C81 81.6716 80.3284 81 79.5 81H78V68.1225C77.9985 67.0101 78.3069 65.9192 78.891 64.9725L88.6635 49.0875C89.5369 47.6717 89.9996 46.041 90 44.3775V19.5C90 16.1863 87.3137 13.5 84 13.5ZM78 87H49.5V84H78V87ZM87 44.3775C87.0015 45.4899 86.6931 46.5808 86.109 47.5275L76.3365 63.4125C75.4631 64.8283 75.0004 66.459 75 68.1225V81H53.58L51.3075 74.1795C51.1063 73.5671 51.0049 72.9264 51.0075 72.282V61.6065C51.0026 60.0142 51.6358 58.4865 52.7655 57.3645L64.818 45.3105C65.9123 44.2624 67.6489 44.2997 68.697 45.3939C69.7134 46.455 69.7134 48.1284 68.697 49.1895L58.947 58.9395L61.068 61.0605L68.5365 53.5935L80.4945 43.128C80.8185 42.843 81.0028 42.4314 81 42V19.5C81 17.8431 82.3431 16.5 84 16.5C85.6569 16.5 87 17.8431 87 19.5V44.3775Z" fill="white"/>
</g>
<defs>
<clipPath id="clip0">
<rect width="90" height="90" fill="white"/>
</clipPath>
</defs>
</svg>
