<svg width="90" height="90" viewBox="0 0 90 90" fill="none" xmlns="http://www.w3.org/2000/svg">
<path d="M89.7279 40.0502C89.6621 39.4495 89.1965 38.9704 88.5978 38.8877L81.2227 37.8686C80.9035 36.2385 80.4734 34.6287 79.9388 33.0622L85.8129 28.4945C86.29 28.1236 86.4538 27.4758 86.2103 26.9228C85.5415 25.4032 84.7883 23.9152 83.9712 22.5002C83.1538 21.0844 82.2419 19.6879 81.2605 18.3496C80.9033 17.8624 80.2605 17.6804 79.7006 17.9079L72.7996 20.7144C71.7093 19.4678 70.5322 18.2906 69.2856 17.2005L72.0921 10.2996C72.3197 9.73969 72.1378 9.09686 71.6504 8.73949C70.3111 7.75775 68.9147 6.84562 67.4998 6.02895C66.0846 5.21191 64.5965 4.45852 63.077 3.78984C62.524 3.54656 61.8761 3.71021 61.5052 4.18728L56.9377 10.0614C55.3707 9.52664 53.7611 9.09668 52.1313 8.77746L51.1119 1.40238C51.0291 0.803848 50.5501 0.338027 49.9495 0.272285C48.2996 0.091582 46.6342 0 45 0C43.3658 0 41.7004 0.091582 40.0502 0.272109C39.4495 0.337852 38.9704 0.803496 38.8877 1.40221L37.8686 8.77728C36.2387 9.0965 34.6289 9.52646 33.0622 10.0612L28.4945 4.18711C28.1236 3.71004 27.4758 3.54621 26.9228 3.78967C25.4036 4.45834 23.9157 5.21156 22.5002 6.02877C21.085 6.8458 19.6886 7.75775 18.3496 8.73949C17.8624 9.09686 17.6803 9.73951 17.9079 10.2994L20.7144 17.2004C19.4678 18.2907 18.2907 19.4678 17.2005 20.7144L10.2996 17.9079C9.73951 17.6803 9.09703 17.8622 8.73967 18.3496C7.75828 19.6879 6.84633 21.0844 6.02895 22.5002C5.21191 23.9154 4.45852 25.4034 3.78984 26.923C3.54639 27.476 3.71021 28.1239 4.18728 28.4948L10.0614 33.0623C9.52664 34.6293 9.09668 36.2389 8.77746 37.8687L1.40238 38.8879C0.803848 38.9705 0.338203 39.4497 0.272285 40.0504C0.091582 41.7002 0 43.3656 0 45C0 46.6344 0.091582 48.2998 0.272285 49.9498C0.338203 50.5505 0.803672 51.0296 1.40238 51.1123L8.77746 52.1314C9.09668 53.7613 9.52682 55.3713 10.0614 56.9377L4.18711 61.5055C3.71021 61.8764 3.54621 62.5242 3.78967 63.0772C4.45816 64.5964 5.21156 66.0844 6.02877 67.5002C6.84615 68.9157 7.75811 70.3121 8.73932 71.6505C9.09668 72.1378 9.73969 72.3199 10.2994 72.0923L17.2004 69.2858C18.2906 70.5324 19.4674 71.7093 20.7144 72.7998L17.9079 79.7008C17.6803 80.2607 17.8622 80.9035 18.3496 81.2609C19.6882 82.2422 21.0846 83.1542 22.5002 83.9714C23.9152 84.7884 25.4034 85.5418 26.923 86.2107C27.476 86.4541 28.1239 86.2903 28.4948 85.8132L33.0623 79.9392C34.6289 80.4737 36.2389 80.9038 37.8687 81.2231L38.8881 88.5981C38.9709 89.1967 39.4499 89.6623 40.0505 89.7282C41.7002 89.9084 43.3654 90 45 90C46.6344 90 48.2998 89.9084 49.9498 89.7277C50.5505 89.6618 51.0296 89.1963 51.1123 88.5976L52.1314 81.2225C53.7615 80.9033 55.3713 80.4732 56.9378 79.9386L61.5055 85.8127C61.8764 86.2896 62.5238 86.4534 63.0772 86.2102C64.5968 85.5415 66.0848 84.7881 67.5 83.9711C68.9156 83.1538 70.3121 82.2419 71.6505 81.2605C72.1378 80.9031 72.3199 80.2605 72.0923 79.7006L69.2858 72.7996C70.5322 71.7094 71.7094 70.5324 72.7996 69.2856L79.7006 72.0921C80.2607 72.3197 80.9033 72.1378 81.2607 71.6504C82.2419 70.312 83.1538 68.9156 83.9712 67.4998C84.7883 66.0846 85.5417 64.5965 86.2103 63.077C86.4538 62.524 86.29 61.8761 85.8129 61.5052L79.9388 56.9377C80.4735 55.3707 80.9035 53.7611 81.2227 52.1313L88.5978 51.1119C89.1963 51.0291 89.6621 50.5501 89.7279 49.9495C89.9084 48.2996 90 46.6342 90 45C90 43.3658 89.9084 41.7004 89.7279 40.0502ZM87.2061 48.6427L79.9163 49.6503C79.3457 49.729 78.8924 50.1692 78.7968 50.7371C78.4408 52.8502 77.8838 54.9352 77.1413 56.9343C76.9409 57.4738 77.1135 58.0808 77.5679 58.4341L83.373 62.9481C82.854 64.0557 82.289 65.1398 81.6878 66.1815C81.0863 67.2233 80.4299 68.2546 79.7303 69.2576L72.9107 66.4842C72.3778 66.2674 71.7662 66.4211 71.3992 66.8639C70.0349 68.509 68.5092 70.0349 66.8644 71.3988C66.4216 71.7659 66.268 72.3776 66.4847 72.9104L69.2578 79.7303C68.2546 80.4299 67.2235 81.0861 66.1816 81.6877C65.1401 82.289 64.0563 82.854 62.9485 83.373L58.4343 77.5679C58.0811 77.1136 57.4743 76.9409 56.9345 77.1413C54.9359 77.8838 52.8509 78.4408 50.7373 78.7968C50.1694 78.8926 49.7292 79.3459 49.6505 79.9163L48.6431 87.2061C47.4242 87.3105 46.203 87.3633 45 87.3633C43.797 87.3633 42.5758 87.3105 41.3573 87.2061L40.3497 79.9163C40.271 79.3457 39.8308 78.8926 39.2629 78.7968C37.1496 78.4408 35.0645 77.8838 33.0657 77.1413C32.5266 76.9409 31.9192 77.1135 31.5659 77.5679L27.0519 83.373C25.9441 82.854 24.8602 82.289 23.8185 81.6877C22.7767 81.0861 21.7455 80.4299 20.7424 79.7302L23.5158 72.9105C23.7326 72.3778 23.5788 71.766 23.1362 71.399C21.4908 70.0348 19.9651 68.509 18.6012 66.864C18.2341 66.4214 17.6224 66.2672 17.0896 66.4843L10.2698 69.2578C9.57023 68.2548 8.91387 67.2235 8.31234 66.1816C7.711 65.1398 7.14604 64.0559 6.62713 62.9483L12.4323 58.4341C12.8865 58.0809 13.0591 57.4738 12.8589 56.9343C12.1164 54.9353 11.5594 52.8504 11.2034 50.7371C11.1076 50.1692 10.6543 49.729 10.0839 49.6503L2.79404 48.6429C2.68945 47.4242 2.63672 46.203 2.63672 45C2.63672 43.797 2.68945 42.5758 2.79387 41.3571L10.0837 40.3497C10.6543 40.271 11.1076 39.8308 11.2032 39.2629C11.5592 37.15 12.1161 35.0648 12.8588 33.0657C13.0591 32.5262 12.8865 31.9192 12.4321 31.5659L6.62695 27.0517C7.14604 25.9441 7.711 24.86 8.31234 23.8184C8.91387 22.7765 9.57023 21.7452 10.2698 20.7422L17.0896 23.5157C17.6226 23.7324 18.2341 23.5786 18.6012 23.136C19.9652 21.491 21.4908 19.9651 23.136 18.601C23.5788 18.234 23.7324 17.6222 23.5157 17.0895L20.7422 10.2697C21.7455 9.56988 22.7767 8.91369 23.8184 8.31217C24.8602 7.71082 25.9441 7.14586 27.0517 6.62695L31.5659 12.4321C31.9191 12.8863 32.5257 13.0591 33.0657 12.8588C35.0648 12.1161 37.1498 11.559 39.2629 11.2032C39.8308 11.1076 40.271 10.6541 40.3497 10.0837L41.3571 2.79387C42.5758 2.68945 43.7971 2.63672 45 2.63672C46.2029 2.63672 47.424 2.68945 48.6427 2.79387L49.6503 10.0837C49.729 10.6543 50.1692 11.1076 50.7371 11.2032C52.85 11.5592 54.9352 12.1161 56.9343 12.8588C57.4731 13.059 58.0806 12.8865 58.4341 12.4321L62.9481 6.62695C64.0557 7.14604 65.1398 7.711 66.1815 8.31217C67.2228 8.91334 68.2541 9.56971 69.2576 10.2697L66.4843 17.0895C66.2676 17.6222 66.4214 18.234 66.864 18.601C68.509 19.9649 70.0348 21.4907 71.399 23.1358C71.7662 23.5786 72.3781 23.7324 72.9105 23.5155L79.7303 20.7422C80.4298 21.7452 81.0861 22.7765 81.6878 23.8184C82.2892 24.86 82.8541 25.9439 83.373 27.0517L77.5679 31.5659C77.1136 31.9191 76.941 32.5262 77.1413 33.0657C77.8838 35.0643 78.4408 37.1493 78.7968 39.2629C78.8926 39.8308 79.3459 40.271 79.9163 40.3497L87.2061 41.3571C87.3105 42.5758 87.3633 43.7971 87.3633 45C87.3633 46.2029 87.3105 47.424 87.2061 48.6427Z" fill="white"/>
<path d="M41.0449 45C41.0449 47.1809 42.8191 48.9551 45 48.9551C47.1809 48.9551 48.9551 47.1809 48.9551 45C48.9551 42.8191 47.1809 41.0449 45 41.0449C42.8191 41.0449 41.0449 42.8191 41.0449 45ZM46.3184 45C46.3184 45.727 45.727 46.3184 45 46.3184C44.273 46.3184 43.6816 45.727 43.6816 45C43.6816 44.273 44.273 43.6816 45 43.6816C45.727 43.6816 46.3184 44.273 46.3184 45Z" fill="white"/>
<path d="M35.7715 45C35.7715 50.0887 39.9113 54.2285 45 54.2285C50.0887 54.2285 54.2285 50.0887 54.2285 45C54.2285 39.9113 50.0887 35.7715 45 35.7715C39.9113 35.7715 35.7715 39.9113 35.7715 45ZM51.5918 45C51.5918 48.6348 48.6348 51.5918 45 51.5918C41.3652 51.5918 38.4082 48.6348 38.4082 45C38.4082 41.3652 41.3652 38.4082 45 38.4082C48.6348 38.4082 51.5918 41.3652 51.5918 45Z" fill="white"/>
<path d="M67.9753 54.9984C69.1096 54.5444 69.9576 53.6115 70.3019 52.4391C71.0089 50.0324 71.3675 47.5295 71.3675 45C71.3675 38.9631 69.382 33.2828 65.6258 28.5727C61.981 24.0024 56.8613 20.7339 51.2105 19.3695C50.0204 19.0821 48.787 19.3512 47.8265 20.1076C46.8683 20.8619 46.3188 21.9939 46.3188 23.2133V32.0806C46.3188 32.7076 46.7604 33.248 47.3749 33.3726C52.8743 34.489 56.8657 39.379 56.8657 45C56.8657 46.2786 56.6602 47.5428 56.2547 48.7575C56.0564 49.3516 56.3036 50.0034 56.846 50.3167L64.5278 54.7518C65.1399 55.1053 65.8188 55.2842 66.5021 55.2842C66.9986 55.2842 67.498 55.1895 67.9753 54.9984ZM59.0607 48.5508C59.3541 47.3906 59.5023 46.2006 59.5023 45C59.5023 38.4954 55.1274 32.7915 48.9554 31.0447V23.2133C48.9554 22.8073 49.1384 22.4304 49.4572 22.1792C49.7789 21.9261 50.1922 21.8361 50.5914 21.9326C61.2717 24.5114 68.7308 33.9971 68.7308 45C68.7308 47.2778 68.4082 49.5307 67.7722 51.696C67.6573 52.0875 67.3741 52.399 66.9955 52.5505C66.6177 52.702 66.1986 52.6718 65.846 52.4684L59.0607 48.5508Z" fill="white"/>
<path d="M42.174 20.1076C41.2131 19.3512 39.98 19.0821 38.79 19.3695C33.139 20.7341 28.0195 24.0024 24.3745 28.5727C20.6183 33.2828 18.6328 38.9631 18.6328 45C18.6328 47.5295 18.9914 50.0324 19.6984 52.4392C20.0428 53.6117 20.8909 54.5446 22.025 54.9986C22.5025 55.1897 23.0015 55.2842 23.4984 55.2842C24.1815 55.2842 24.8606 55.1053 25.4726 54.7518L33.1545 50.3167C33.6969 50.0034 33.9441 49.3518 33.7458 48.7577C33.3403 47.5427 33.1348 46.2784 33.1348 45C33.1348 39.379 37.1262 34.489 42.6255 33.3726C43.2401 33.248 43.6816 32.7076 43.6816 32.0806V23.2133C43.6816 21.9939 43.1321 20.8619 42.174 20.1076ZM41.0449 31.0447C34.8729 32.7915 30.498 38.4954 30.498 45C30.498 46.2004 30.6462 47.3904 30.9396 48.5508L24.1541 52.4684C23.8015 52.6721 23.3826 52.702 23.0047 52.5505C22.626 52.399 22.3429 52.0875 22.2279 51.696C21.5921 49.5307 21.2695 47.2778 21.2695 45C21.2695 33.9971 28.7286 24.5114 39.4089 21.9326C39.5139 21.9071 39.6199 21.8948 39.7248 21.8948C40.0191 21.8948 40.3061 21.9927 40.5431 22.1794C40.8621 22.4306 41.0449 22.8074 41.0449 23.2135V31.0447Z" fill="white"/>
<path d="M63.203 57.032L55.5254 52.5993C54.9831 52.2862 54.2953 52.3979 53.8798 52.8665C51.6264 55.4079 48.3899 56.8655 45.0004 56.8655C41.6108 56.8655 38.3743 55.4079 36.121 52.8663C35.7056 52.3975 35.0176 52.2859 34.4753 52.5991L26.7977 57.0318C25.7393 57.6428 25.0322 58.6873 24.8576 59.8977C24.6839 61.1022 25.0645 62.2972 25.9014 63.1764C30.9291 68.4585 37.712 71.3675 45.0004 71.3675C52.2888 71.3675 59.0715 68.4587 64.0992 63.1766C64.9362 62.2973 65.3166 61.1022 65.1429 59.8979C64.9684 58.6875 64.2614 57.643 63.203 57.032ZM62.1893 61.3587C57.6643 66.1127 51.5598 68.7308 45.0004 68.7308C38.4409 68.7308 32.3364 66.1125 27.8113 61.3585C27.5351 61.0684 27.4098 60.6733 27.4674 60.2743C27.5258 59.8693 27.7622 59.5198 28.1161 59.3154L34.8977 55.4C37.5951 58.019 41.2197 59.5022 45.0004 59.5022C48.7811 59.5022 52.4057 58.019 55.103 55.4L61.8847 59.3154C62.2385 59.5196 62.4749 59.8691 62.5333 60.2743C62.5908 60.6733 62.4654 61.0686 62.1893 61.3587Z" fill="white"/>
<path d="M45 13.3594C34.6941 13.3594 25.0037 18.4046 19.0779 26.8555C18.6599 27.4518 18.8042 28.2739 19.4003 28.6919C19.9963 29.1097 20.8185 28.9656 21.2367 28.3695C26.6694 20.6216 35.5528 15.9961 45 15.9961C60.9928 15.9961 74.0039 29.0072 74.0039 45C74.0039 60.9928 60.9928 74.0039 45 74.0039C29.0072 74.0039 15.9961 60.9928 15.9961 45C15.9961 40.7167 16.9096 36.5903 18.7112 32.7356C19.0195 32.0759 18.7348 31.2913 18.0751 30.983C17.4152 30.6745 16.6307 30.9595 16.3225 31.6192C14.3562 35.826 13.3594 40.3279 13.3594 45C13.3594 62.4466 27.5534 76.6406 45 76.6406C62.4466 76.6406 76.6406 62.4466 76.6406 45C76.6406 27.5534 62.4466 13.3594 45 13.3594Z" fill="white"/>
</svg>
