<svg width="26" height="26" viewBox="0 0 26 26" fill="none" xmlns="http://www.w3.org/2000/svg">
<path d="M23.281 6.07561H2.71426C2.18469 6.06861 1.67918 5.85333 1.30716 5.47637C0.935147 5.09941 0.726562 4.5911 0.726562 4.06148C0.726562 3.53187 0.935147 3.02356 1.30716 2.6466C1.67918 2.26964 2.18469 2.05436 2.71426 2.04736H23.281C23.8105 2.05436 24.316 2.26964 24.6881 2.6466C25.0601 3.02356 25.2687 3.53187 25.2687 4.06148C25.2687 4.5911 25.0601 5.09941 24.6881 5.47637C24.316 5.85333 23.8105 6.06861 23.281 6.07561ZM2.71426 2.75007C2.37016 2.7557 2.04207 2.89634 1.80073 3.14167C1.55938 3.38699 1.42413 3.71735 1.42413 4.06148C1.42413 4.40562 1.55938 4.73598 1.80073 4.9813C2.04207 5.22663 2.37016 5.36727 2.71426 5.3729H23.281C23.6251 5.36727 23.9531 5.22663 24.1945 4.9813C24.4358 4.73598 24.5711 4.40562 24.5711 4.06148C24.5711 3.71735 24.4358 3.38699 24.1945 3.14167C23.9531 2.89634 23.6251 2.7557 23.281 2.75007H2.71426Z" fill="white"/>
<path d="M15.837 23.9527H10.1641C10.0709 23.9527 9.98158 23.9157 9.91568 23.8498C9.84979 23.7839 9.81278 23.6946 9.81278 23.6014V15.9395L2.18178 5.9379C2.14196 5.8859 2.11746 5.82381 2.11106 5.75863C2.10465 5.69345 2.1166 5.62778 2.14553 5.56903C2.17447 5.51028 2.21925 5.46078 2.27483 5.42613C2.3304 5.39148 2.39455 5.37305 2.46005 5.37292H23.5411C23.6066 5.37296 23.6707 5.39127 23.7263 5.42581C23.782 5.46035 23.8268 5.50974 23.8559 5.5684C23.8849 5.62707 23.897 5.69268 23.8907 5.75784C23.8845 5.823 23.8601 5.88512 23.8205 5.9372L16.1884 15.9395V23.6014C16.1884 23.6946 16.1514 23.7839 16.0855 23.8498C16.0196 23.9157 15.9302 23.9527 15.837 23.9527ZM10.5155 23.25H15.4857V15.8207C15.4857 15.7438 15.511 15.669 15.5577 15.6078L22.8307 6.07598H3.17083L10.4438 15.6078C10.4905 15.669 10.5158 15.7438 10.5158 15.8207L10.5155 23.25Z" fill="white"/>
</svg>
