<svg width="26" height="26" viewBox="0 0 26 26" fill="none" xmlns="http://www.w3.org/2000/svg">
<g clip-path="url(#clip0)">
<path d="M12.9913 26C12.9058 26 12.8191 25.9794 12.7411 25.9383L0.291417 19.4383C0.112667 19.3451 0 19.1598 0 18.9583V6.77083C0 6.58342 0.0975 6.409 0.25675 6.31042C0.416 6.21183 0.616417 6.20317 0.78325 6.28658L13.2329 12.5158C13.416 12.6078 13.5319 12.7953 13.5319 13V25.4583C13.5319 25.6479 13.4333 25.8234 13.2708 25.922C13.1863 25.974 13.0888 26 12.9913 26ZM1.08333 18.6301L12.4497 24.5646V13.3348L1.08333 7.64725V18.6301Z" fill="white"/>
<path d="M13.0104 26C12.9129 26 12.8154 25.974 12.7298 25.922C12.5684 25.8234 12.4688 25.6479 12.4688 25.4583V13C12.4688 12.7953 12.5847 12.6078 12.7677 12.5158L25.2174 6.28658C25.3832 6.20208 25.5847 6.21075 25.7439 6.31042C25.9042 6.409 26.0017 6.58342 26.0017 6.77083V18.9583C26.0017 19.1598 25.8891 19.3451 25.7103 19.4383L13.2607 25.9383C13.1827 25.9794 13.096 26 13.0104 26ZM13.5521 13.3348V24.5646L24.9184 18.6301V7.64725L13.5521 13.3348ZM25.4601 18.9583H25.4709H25.4601Z" fill="white"/>
<path d="M0.542793 7.31278C0.343459 7.31278 0.152793 7.20337 0.0574593 7.01378C-0.0768741 6.7462 0.0325426 6.4212 0.300126 6.28687L12.7671 0.0577018C12.9199 -0.0181315 13.0997 -0.0181315 13.2514 0.0577018L25.701 6.28687C25.9686 6.4212 26.077 6.7462 25.9437 7.01378C25.8094 7.28137 25.4855 7.38862 25.2168 7.25645L13.0098 1.14754L0.785459 7.25537C0.707459 7.29437 0.625126 7.31278 0.542793 7.31278Z" fill="white"/>
<path d="M19.4994 16.25C19.2004 16.25 18.9577 16.0073 18.9577 15.7083V10.0847L6.80708 4.00508C6.53949 3.87183 6.43116 3.54575 6.56549 3.27817C6.69983 3.01058 7.02483 2.90333 7.29241 3.0355L19.7421 9.26466C19.9252 9.35783 20.0411 9.54525 20.0411 9.75V15.7083C20.0411 16.0073 19.7984 16.25 19.4994 16.25Z" fill="white"/>
</g>
<defs>
<clipPath id="clip0">
<rect width="26" height="26" fill="white"/>
</clipPath>
</defs>
</svg>
