<svg width="26" height="26" viewBox="0 0 26 26" fill="none" xmlns="http://www.w3.org/2000/svg">
<path d="M24.7812 21.125H24.375V2.03125C24.375 1.92351 24.3322 1.82017 24.256 1.74399C24.1798 1.6678 24.0765 1.625 23.9688 1.625H2.03125C1.92351 1.625 1.82017 1.6678 1.74399 1.74399C1.6678 1.82017 1.625 1.92351 1.625 2.03125V21.125H1.21875C1.11101 21.125 1.00767 21.1678 0.931488 21.244C0.855301 21.3202 0.8125 21.4235 0.8125 21.5312V23.1562C0.8125 23.264 0.855301 23.3673 0.931488 23.4435C1.00767 23.5197 1.11101 23.5625 1.21875 23.5625H2.4375V24.7812C2.4375 24.889 2.4803 24.9923 2.55649 25.0685C2.63267 25.1447 2.73601 25.1875 2.84375 25.1875H5.28125C5.38899 25.1875 5.49233 25.1447 5.56851 25.0685C5.6447 24.9923 5.6875 24.889 5.6875 24.7812V23.5625H11.375V24.7812C11.375 24.889 11.4178 24.9923 11.494 25.0685C11.5702 25.1447 11.6735 25.1875 11.7812 25.1875H14.2188C14.3265 25.1875 14.4298 25.1447 14.506 25.0685C14.5822 24.9923 14.625 24.889 14.625 24.7812V23.5625H20.3125V24.7812C20.3125 24.889 20.3553 24.9923 20.4315 25.0685C20.5077 25.1447 20.611 25.1875 20.7188 25.1875H23.1562C23.264 25.1875 23.3673 25.1447 23.4435 25.0685C23.5197 24.9923 23.5625 24.889 23.5625 24.7812V23.5625H24.7812C24.889 23.5625 24.9923 23.5197 25.0685 23.4435C25.1447 23.3673 25.1875 23.264 25.1875 23.1562V21.5312C25.1875 21.4235 25.1447 21.3202 25.0685 21.244C24.9923 21.1678 24.889 21.125 24.7812 21.125ZM17.0625 21.125V15.4375H18.6875V17.4688C18.6875 17.5765 18.7303 17.6798 18.8065 17.756C18.8827 17.8322 18.986 17.875 19.0938 17.875H21.5312C21.639 17.875 21.7423 17.8322 21.8185 17.756C21.8947 17.6798 21.9375 17.5765 21.9375 17.4688V15.4375H23.5625V21.125H17.0625ZM4.875 15.4375H6.5V17.0625H4.875V15.4375ZM2.4375 14.625V8.9375H4.0625V10.9688C4.0625 11.0765 4.1053 11.1798 4.18149 11.256C4.25767 11.3322 4.36101 11.375 4.46875 11.375H6.90625C7.01399 11.375 7.11733 11.3322 7.19351 11.256C7.2697 11.1798 7.3125 11.0765 7.3125 10.9688V8.9375H8.9375V14.625H2.4375ZM4.875 8.9375H6.5V10.5625H4.875V8.9375ZM9.75 8.9375H11.375V10.9688C11.375 11.0765 11.4178 11.1798 11.494 11.256C11.5702 11.3322 11.6735 11.375 11.7812 11.375H14.2188C14.3265 11.375 14.4298 11.3322 14.506 11.256C14.5822 11.1798 14.625 11.0765 14.625 10.9688V8.9375H16.25V14.625H9.75V8.9375ZM12.1875 2.4375H13.8125V4.0625H12.1875V2.4375ZM11.7812 4.875H14.2188C14.3265 4.875 14.4298 4.8322 14.506 4.75601C14.5822 4.67983 14.625 4.57649 14.625 4.46875V2.4375H16.25V8.125H9.75V2.4375H11.375V4.46875C11.375 4.57649 11.4178 4.67983 11.494 4.75601C11.5702 4.8322 11.6735 4.875 11.7812 4.875ZM12.1875 8.9375H13.8125V10.5625H12.1875V8.9375ZM19.5 8.9375H21.125V10.5625H19.5V8.9375ZM19.0938 11.375H21.5312C21.639 11.375 21.7423 11.3322 21.8185 11.256C21.8947 11.1798 21.9375 11.0765 21.9375 10.9688V8.9375H23.5625V14.625H17.0625V8.9375H18.6875V10.9688C18.6875 11.0765 18.7303 11.1798 18.8065 11.256C18.8827 11.3322 18.986 11.375 19.0938 11.375ZM19.5 15.4375H21.125V17.0625H19.5V15.4375ZM12.1875 15.4375H13.8125V17.0625H12.1875V15.4375ZM11.375 15.4375V17.4688C11.375 17.5765 11.4178 17.6798 11.494 17.756C11.5702 17.8322 11.6735 17.875 11.7812 17.875H14.2188C14.3265 17.875 14.4298 17.8322 14.506 17.756C14.5822 17.6798 14.625 17.5765 14.625 17.4688V15.4375H16.25V21.125H9.75V15.4375H11.375ZM23.5625 8.125H17.0625V2.4375H18.6875V4.46875C18.6875 4.57649 18.7303 4.67983 18.8065 4.75601C18.8827 4.8322 18.986 4.875 19.0938 4.875H21.5312C21.639 4.875 21.7423 4.8322 21.8185 4.75601C21.8947 4.67983 21.9375 4.57649 21.9375 4.46875V2.4375H23.5625V8.125ZM19.5 2.4375H21.125V4.0625H19.5V2.4375ZM4.875 2.4375H6.5V4.0625H4.875V2.4375ZM4.0625 2.4375V4.46875C4.0625 4.57649 4.1053 4.67983 4.18149 4.75601C4.25767 4.8322 4.36101 4.875 4.46875 4.875H6.90625C7.01399 4.875 7.11733 4.8322 7.19351 4.75601C7.2697 4.67983 7.3125 4.57649 7.3125 4.46875V2.4375H8.9375V8.125H2.4375V2.4375H4.0625ZM2.4375 15.4375H4.0625V17.4688C4.0625 17.5765 4.1053 17.6798 4.18149 17.756C4.25767 17.8322 4.36101 17.875 4.46875 17.875H6.90625C7.01399 17.875 7.11733 17.8322 7.19351 17.756C7.2697 17.6798 7.3125 17.5765 7.3125 17.4688V15.4375H8.9375V21.125H2.4375V15.4375ZM4.875 24.375H3.25V23.5625H4.875V24.375ZM13.8125 24.375H12.1875V23.5625H13.8125V24.375ZM22.75 24.375H21.125V23.5625H22.75V24.375ZM24.375 22.75H1.625V21.9375H24.375V22.75Z" fill="white"/>
<path d="M21.9375 19.5H22.75V20.3125H21.9375V19.5Z" fill="white"/>
<path d="M14.625 19.5H15.4375V20.3125H14.625V19.5Z" fill="white"/>
<path d="M21.9375 13H22.75V13.8125H21.9375V13Z" fill="white"/>
<path d="M14.625 13H15.4375V13.8125H14.625V13Z" fill="white"/>
<path d="M7.3125 19.5H8.125V20.3125H7.3125V19.5Z" fill="white"/>
<path d="M7.3125 13H8.125V13.8125H7.3125V13Z" fill="white"/>
<path d="M21.9375 6.5H22.75V7.3125H21.9375V6.5Z" fill="white"/>
<path d="M14.625 6.5H15.4375V7.3125H14.625V6.5Z" fill="white"/>
<path d="M7.3125 6.5H8.125V7.3125H7.3125V6.5Z" fill="white"/>
</svg>
