<svg width="16" height="16" viewBox="0 0 16 16" fill="none" xmlns="http://www.w3.org/2000/svg">
<path d="M0 1.66666L0 5.89534C0 6.69669 0.312 7.45 0.878656 8.01669L8.29334 15.4313C8.66 15.798 9.14734 16 9.668 16C10.186 16 10.6733 15.798 11.04 15.4313L15.4313 11.04C15.798 10.6733 16 10.186 16 9.66534C16 9.14734 15.798 8.66 15.4313 8.29334L8.01669 0.878688C7.45 0.312 6.69666 0 5.89534 0L1.66666 0C0.748 0 0 0.748 0 1.66666ZM5.89534 0.666656C6.51869 0.666656 7.10469 0.909313 7.54469 1.34931L14.96 8.76466C15.4393 9.244 15.4427 10.0847 14.96 10.568L10.568 14.96C10.328 15.2007 10.008 15.3333 9.66534 15.3333C9.32534 15.3333 9.00534 15.2007 8.76469 14.96L1.35 7.54534C0.909344 7.104 0.666656 6.51869 0.666656 5.89534L0.666656 1.66669C0.666656 1.11534 1.11531 0.666688 1.66666 0.666688L5.89534 0.666688V0.666656Z" fill="white"/>
<path d="M2 3.66647C2 4.58513 2.748 5.33313 3.66666 5.33313C4.58531 5.33313 5.33331 4.58513 5.33331 3.66647C5.33331 2.74782 4.58534 1.99982 3.66666 1.99982C2.748 1.99982 2 2.74782 2 3.66647ZM4.66666 3.66647C4.66666 4.21782 4.218 4.66647 3.66666 4.66647C3.11531 4.66647 2.66666 4.21782 2.66666 3.66647C2.66666 3.11513 3.11531 2.66647 3.66666 2.66647C4.218 2.66647 4.66666 3.11516 4.66666 3.66647Z" fill="white"/>
</svg>
