<svg width="26" height="26" viewBox="0 0 26 26" fill="none" xmlns="http://www.w3.org/2000/svg">
<path d="M22.2962 10.1562H19.1413L18.3288 16.6562H15.0312V10.1562H13.4062V8.53125H10.9688V4.46875H10.1177L9.71141 0.40625H7.35069L6.94444 4.46875H6.09375V2.84375H2.84375V4.46875H2.03125V14.0729C1.03188 15.0345 0.40625 16.382 0.40625 17.875C0.40625 19.368 1.03188 20.7155 2.03125 21.6771V25.5938H24.7812V16.6562H23.1087L22.2962 10.1562ZM21.5788 10.9688L21.6803 11.7812H19.7572L19.8587 10.9688H21.5788ZM19.6556 12.5938H21.7819L22.2897 16.6562H19.1474L19.6556 12.5938ZM14.2188 16.6562H10.8213C10.3618 14.7229 8.84 13.2007 6.90625 12.7412V10.9688H14.2188V16.6562ZM7.19631 22.076C7.42097 21.7027 7.61191 21.2448 7.76141 20.7188H9.13169C8.6255 21.331 7.95763 21.8014 7.19631 22.076ZM2.24291 20.7188H3.61319C3.76269 21.2448 3.95322 21.7027 4.17828 22.076C3.41737 21.8014 2.7495 21.331 2.24291 20.7188ZM4.17869 13.674C3.95363 14.0473 3.76309 14.5052 3.61359 15.0312H2.24291C2.7495 14.419 3.41738 13.9486 4.17869 13.674ZM4.46875 7.71875H2.84375V6.90625H4.46875V7.71875ZM4.46875 8.53125V9.34375H2.84375V8.53125H4.46875ZM4.46875 10.1562V10.9688H2.84375V10.1562H4.46875ZM8.11606 17.4688C8.09738 16.8923 8.04131 16.3463 7.94991 15.8438H9.66266C9.91697 16.3398 10.0827 16.8878 10.1355 17.4688H8.11606ZM4.07103 17.4688C4.09216 16.8809 4.15919 16.3349 4.25791 15.8438H7.11709C7.21622 16.3349 7.28284 16.8809 7.30397 17.4688H4.07103ZM7.30397 18.2812C7.28284 18.8691 7.21581 19.4151 7.11709 19.9062H4.25791C4.15878 19.4151 4.09216 18.8691 4.07103 18.2812H7.30397ZM7.76141 15.0312C7.61191 14.5052 7.42138 14.0473 7.19631 13.674C7.95763 13.9482 8.6255 14.419 9.13169 15.0312H7.76141ZM6.90991 15.0312H4.46469C4.78522 14.0266 5.25078 13.4062 5.68709 13.4062C6.12341 13.4062 6.58938 14.0266 6.90991 15.0312ZM3.42509 15.8438C3.33369 16.3463 3.27763 16.8923 3.25894 17.4688H1.23947C1.29228 16.8878 1.45763 16.3398 1.71234 15.8438H3.42509ZM3.25894 18.2812C3.27763 18.8577 3.33369 19.4037 3.42509 19.9062H1.71194C1.45763 19.4102 1.29188 18.8622 1.23906 18.2812H3.25894ZM4.46509 20.7188H6.91031C6.58978 21.7234 6.12422 22.3438 5.68791 22.3438C5.25159 22.3438 4.78562 21.7234 4.46509 20.7188ZM9.66306 19.9062H7.95031C8.04172 19.4037 8.09778 18.8577 8.11647 18.2812H10.1359C10.0831 18.8622 9.91737 19.4102 9.66306 19.9062ZM12.5938 10.1562H8.53125V9.34375H12.5938V10.1562ZM10.1562 8.53125H7.71875V10.1562H6.09375V12.6145C5.95928 12.6039 5.82481 12.5938 5.6875 12.5938C5.55019 12.5938 5.41572 12.6039 5.28125 12.6145V5.28125H10.1562V8.53125ZM8.08641 1.21875H8.97569L9.30069 4.46875H7.761L8.08641 1.21875ZM3.65625 3.65625H5.28125V4.46875H3.65625V3.65625ZM4.46875 5.28125V6.09375H2.84375V5.28125H4.46875ZM2.84375 11.7812H4.46875V12.7412C3.88334 12.8802 3.33612 13.1154 2.84375 13.4318V11.7812ZM2.84375 22.3182C3.66559 22.8459 4.64019 23.1562 5.6875 23.1562C6.73481 23.1562 7.70941 22.8459 8.53125 22.3182V24.7812H2.84375V22.3182ZM12.5938 24.7812H10.9688V21.5312H12.5938V24.7812ZM17.4688 24.7812H15.8438V21.5312H17.4688V24.7812ZM22.3438 24.7812H20.7188V21.5312H22.3438V24.7812ZM23.1562 24.7812V20.7188H19.9062V24.7812H18.2812V20.7188H15.0312V24.7812H13.4062V20.7188H10.1562V24.7812H9.34375V21.6771C10.062 20.9861 10.5832 20.0952 10.8213 19.0938H23.9688V24.7812H23.1562ZM23.9688 18.2812H10.948C10.9586 18.1468 10.9688 18.0123 10.9688 17.875C10.9688 17.7377 10.9586 17.6032 10.948 17.4688H23.9688V18.2812Z" fill="white"/>
<path d="M23.5625 4.46875H22.739C22.6375 3.55591 21.8615 2.84375 20.9219 2.84375H19.9062V3.65625H20.9219C21.4821 3.65625 21.9375 4.11206 21.9375 4.67188V5.28125H23.5625C24.2344 5.28125 24.7812 5.82806 24.7812 6.5C24.7812 7.17194 24.2344 7.71875 23.5625 7.71875H22.3438C21.6718 7.71875 21.125 8.26556 21.125 8.9375V9.34375H21.9375V8.9375C21.9375 8.71366 22.1195 8.53125 22.3438 8.53125H23.5625C24.6825 8.53125 25.5938 7.62003 25.5938 6.5C25.5938 5.37997 24.6825 4.46875 23.5625 4.46875Z" fill="white"/>
<path d="M16.25 8.53125H19.0938C19.318 8.53125 19.5 8.71366 19.5 8.9375V9.34375H20.3125V8.9375C20.3125 8.26556 19.7657 7.71875 19.0938 7.71875H16.25C16.0257 7.71875 15.8438 7.53634 15.8438 7.3125C15.8438 7.08866 16.0257 6.90625 16.25 6.90625H18.6875V6.09375H17.875C17.2031 6.09375 16.6562 5.54694 16.6562 4.875C16.6562 4.20306 17.2031 3.65625 17.875 3.65625H19.0938V2.84375H17.875C16.755 2.84375 15.8438 3.75497 15.8438 4.875C15.8438 5.33406 16.0026 5.75331 16.2606 6.09375H16.25C15.5781 6.09375 15.0312 6.64056 15.0312 7.3125C15.0312 7.98444 15.5781 8.53125 16.25 8.53125Z" fill="white"/>
<path d="M12.5938 11.7812H13.4062V12.5938H12.5938V11.7812Z" fill="white"/>
<path d="M9.34375 11.7812H10.1562V12.5938H9.34375V11.7812Z" fill="white"/>
<path d="M7.71875 11.7812H8.53125V12.5938H7.71875V11.7812Z" fill="white"/>
<path d="M10.9688 11.7812H11.7812V12.5938H10.9688V11.7812Z" fill="white"/>
<path d="M10.9688 13.4062H11.7812V14.2188H10.9688V13.4062Z" fill="white"/>
<path d="M12.5938 13.4062H13.4062V14.2188H12.5938V13.4062Z" fill="white"/>
<path d="M10.9688 15.0312H11.7812V15.8438H10.9688V15.0312Z" fill="white"/>
<path d="M12.5938 15.0312H13.4062V15.8438H12.5938V15.0312Z" fill="white"/>
</svg>
