<svg width="20" height="20" viewBox="0 0 20 20" fill="none" xmlns="http://www.w3.org/2000/svg">
<path d="M10 0C4.48625 0 0 4.48625 0 10C0 15.5138 4.48625 20 10 20C15.5138 20 20 15.5138 20 10C20 4.48625 15.5138 0 10 0ZM10 18.75C5.175 18.75 1.25 14.825 1.25 10C1.25 5.175 5.175 1.25 10 1.25C14.825 1.25 18.75 5.175 18.75 10C18.75 14.825 14.825 18.75 10 18.75Z" fill="white"/>
<path d="M9.375 15.625L10.625 15.625L10.625 6.875L9.375 6.875L9.375 15.625Z" fill="white"/>
<path d="M9.375 5.625L10.625 5.625L10.625 4.375L9.375 4.375L9.375 5.625Z" fill="white"/>
</svg>
