<svg width="71" height="50" viewBox="0 0 71 50" fill="none" xmlns="http://www.w3.org/2000/svg">
<rect x="0.5" y="0.5" width="69.9865" height="49" stroke="#656867"/>
<path d="M11.9572 36.6053C11.881 36.4065 11.7658 36.1765 11.583 35.9678C11.2441 35.5805 10.7244 35.3187 9.96576 35.3187C9.48595 35.3187 8.88428 35.4869 8.40356 35.9863C7.91966 36.489 7.61513 37.2677 7.61513 38.3796C7.61513 39.0877 7.76508 39.8181 8.13473 40.3886C8.51906 40.9818 9.13314 41.3828 9.96576 41.3828C10.4945 41.3828 10.9759 41.2224 11.3555 40.8972C11.6339 40.6587 11.838 40.3484 11.9691 39.9894H12.4654C12.3053 40.4201 12.0712 40.7747 11.7708 41.0423C11.3464 41.4205 10.7492 41.6612 9.93241 41.6612C9.07204 41.6612 8.37684 41.3759 7.89373 40.8559C7.40762 40.3327 7.08545 39.5167 7.08545 38.3631C7.08545 37.1943 7.42435 36.3734 7.92247 35.8484C8.4196 35.3244 9.12272 35.0445 9.95325 35.0445C10.9287 35.0445 11.5695 35.3725 11.976 35.7791C12.2271 36.0304 12.3984 36.3213 12.5021 36.6053H11.9572Z" fill="black" stroke="#656867"/>
<path d="M14.4926 38.6385V39.958L15.3671 38.9699L17.0184 37.1039H17.403L16.263 38.3408L16.0104 38.6149L16.201 38.9353L17.7104 41.4721H17.1737L16.0248 39.4218L15.6986 38.8395L15.2315 39.3162L14.6355 39.9246L14.4926 40.0704V40.2745V41.4721H14.0671V37.1039H14.4926V38.6385Z" fill="black" stroke="#656867"/>
<path d="M23.3082 39.28C23.3082 40.1276 23.0251 40.6942 22.6323 41.0527C22.2315 41.4186 21.6672 41.6121 21.0365 41.6121C20.4067 41.6121 19.8397 41.42 19.4362 41.0553C19.0414 40.6983 18.7563 40.1342 18.7563 39.2882C18.7563 38.4445 19.0412 37.8814 19.436 37.5249C19.8396 37.1604 20.4067 36.9684 21.0365 36.9684C21.6701 36.9684 22.2345 37.1584 22.6344 37.5193C23.0254 37.8723 23.3082 38.4326 23.3082 39.28ZM19.2235 39.28C19.2235 39.6606 19.2794 40.1768 19.5362 40.6142C19.8163 41.0912 20.3083 41.4242 21.0365 41.4242C21.7631 41.4242 22.2542 41.0945 22.5331 40.6174C22.788 40.1813 22.8411 39.6665 22.8411 39.2882C22.8411 38.9116 22.7879 38.3971 22.5332 37.9608C22.2548 37.4837 21.7641 37.1522 21.0365 37.1522C20.3122 37.1522 19.8196 37.4774 19.5376 37.9515C19.2793 38.3858 19.2235 38.8994 19.2235 39.28Z" fill="black" stroke="#656867"/>
<path d="M24.2205 41.5674V41.4634C24.3508 41.4573 24.5124 41.4317 24.6708 41.3427C24.872 41.2297 25.0035 41.0522 25.0887 40.8501C25.2416 40.4877 25.2917 39.929 25.2917 39.1195V37.108H28.6723V41.468H28.2468V37.7342V37.2342H27.7468H26.2171H25.7171V37.7342V39.3908C25.7171 40.3857 25.5616 40.9377 25.3642 41.231C25.1968 41.4797 24.9661 41.5914 24.5874 41.5914C24.4903 41.5914 24.3551 41.5835 24.2205 41.5674Z" fill="black" stroke="#656867"/>
<path d="M30.8273 38.6385V39.958L31.7018 38.9699L33.3531 37.1039H33.7353L32.5974 38.3412L32.345 38.6156L32.5359 38.9357L34.0483 41.4721H33.5122L32.3592 39.4212L32.0326 38.8402L31.5662 39.3162L30.9702 39.9246L30.8273 40.0704V40.2745V41.4721H30.4019V37.1039H30.8273V38.6385Z" fill="black" stroke="#656867"/>
<path d="M39.6471 39.28C39.6471 40.1276 39.364 40.6942 38.9712 41.0527C38.5703 41.4186 38.0061 41.6121 37.3753 41.6121C36.7456 41.6121 36.1786 41.42 35.7751 41.0553C35.3803 40.6983 35.0952 40.1342 35.0952 39.2882C35.0952 38.4445 35.3801 37.8814 35.7749 37.5249C36.1784 37.1604 36.7456 36.9684 37.3753 36.9684C38.0066 36.9684 38.5713 37.1583 38.9719 37.5195C39.3636 37.8727 39.6471 38.4331 39.6471 39.28ZM35.5624 39.28C35.5624 39.6606 35.6182 40.1768 35.8751 40.6142C36.1552 41.0913 36.6471 41.4242 37.3753 41.4242C38.1035 41.4242 38.5951 41.095 38.8738 40.6169C39.1282 40.1805 39.1799 39.6653 39.1799 39.2882C39.1799 38.9127 39.1281 38.398 38.874 37.9613C38.5957 37.4832 38.1044 37.1522 37.3753 37.1522C36.6511 37.1522 36.1585 37.4774 35.8765 37.9515C35.6182 38.3858 35.5624 38.8994 35.5624 39.28Z" fill="black" stroke="#656867"/>
<path d="M41.5349 41.468H41.1094V37.1039H41.5349V37.5698V38.7783V39.1251V39.2783V39.6251V41.0021V41.468ZM43.8344 37.2916C43.7164 37.2112 43.5866 37.1582 43.4541 37.1242C43.8167 37.1638 44.105 37.2583 44.3065 37.3843C44.5564 37.5406 44.6692 37.7372 44.6692 37.9891C44.6692 38.2649 44.5075 38.4911 44.1851 38.6129C44.243 38.4788 44.2729 38.3295 44.2729 38.1699C44.2729 37.8099 44.1305 37.4932 43.8344 37.2916ZM43.8331 39.0413C43.9115 38.9866 43.98 38.9234 44.0382 38.8531L44.0428 39.4275C44.028 39.4153 44.0129 39.4033 43.9973 39.3917C43.8632 39.2918 43.7124 39.2255 43.5552 39.184C43.6524 39.1488 43.7461 39.1021 43.8331 39.0413ZM44.4355 40.3115C44.4355 40.0888 44.3836 39.8809 44.2783 39.7028C44.4077 39.7536 44.5205 39.82 44.6077 39.9029C44.7296 40.0186 44.8318 40.1933 44.8318 40.5006C44.8318 40.8523 44.7079 41.0592 44.5101 41.1987C44.3086 41.3409 43.9834 41.4442 43.5121 41.4644C43.682 41.4306 43.851 41.3689 44.0005 41.2607C44.3139 41.0338 44.4355 40.6857 44.4355 40.3115Z" fill="black" stroke="#656867"/>
<path d="M50.5421 39.28C50.5421 40.1271 50.2583 40.6938 49.8648 41.0526C49.4632 41.4188 48.8988 41.6121 48.2704 41.6121C47.6406 41.6121 47.0723 41.42 46.6677 41.0549C46.2719 40.6978 45.9861 40.1337 45.9861 39.2882C45.9861 38.4445 46.2709 37.8816 46.6661 37.5251C47.07 37.1606 47.6382 36.9684 48.2704 36.9684C48.9017 36.9684 49.4663 37.1583 49.8669 37.5195C50.2586 37.8727 50.5421 38.4331 50.5421 39.28ZM46.4574 39.28C46.4574 39.6605 46.5132 40.1771 46.7709 40.6147C47.052 41.092 47.5451 41.4242 48.2745 41.4242C49.0012 41.4242 49.4923 41.0945 49.7711 40.6174C50.026 40.1813 50.0791 39.6665 50.0791 39.2882C50.0791 38.9116 50.0259 38.3971 49.7713 37.9608C49.4929 37.4837 49.0021 37.1522 48.2745 37.1522C47.5491 37.1522 47.0552 37.4766 46.7723 37.951C46.5132 38.3856 46.4574 38.8994 46.4574 39.28Z" fill="black" stroke="#656867"/>
<path d="M23.9037 31.5111V30.534L23.1112 31.1056C21.0104 32.6208 18.149 32.8321 16.9598 32.8321C12.8276 32.8321 10.4978 31.654 9.19389 30.2228C8.03757 28.9536 7.62872 27.4209 7.5475 26.1537H11.2048C11.285 26.8231 11.5431 27.6375 12.1869 28.3409C13.0121 29.2425 14.397 29.8819 16.6097 29.8819C17.7877 29.8819 19.0937 29.7394 20.123 29.2497C20.6439 29.0019 21.1121 28.6567 21.4497 28.1792C21.7907 27.6971 21.978 27.1087 21.978 26.4141C21.978 25.877 21.8448 25.4122 21.5794 25.0162C21.3177 24.6257 20.9492 24.3342 20.5286 24.1034C19.7089 23.6537 18.5776 23.3786 17.3678 23.0843L17.3657 23.0838L17.3656 23.0838L12.6891 21.9452L12.6873 21.9448C11.1037 21.5657 9.91269 20.9262 9.11676 20.0133C8.32644 19.1068 7.88161 17.8803 7.88161 16.2365C7.88161 15.0537 8.21264 13.4259 9.39959 12.0993C10.5751 10.7854 12.6582 9.69116 16.318 9.69116C19.6802 9.69116 21.7706 10.7562 23.0408 12.096L23.9037 13.0061V11.752V10.2954H27.4219V22.1803V23.5014L28.2966 22.5114L33.8451 16.231H38.0231L32.7433 21.9649L32.4907 22.2393L32.6816 22.5596L38.4457 32.2319H34.2039L30.2459 25.1908L29.9192 24.6097L29.4528 25.086L27.5647 27.0138L27.4219 27.1596V27.3636V32.236H23.9037V31.5111ZM23.9037 16.6147V16.1147H23.4037H21.1397C21.0415 15.5639 20.8259 14.8203 20.253 14.1603C19.4906 13.2818 18.1796 12.6413 15.9678 12.6413C14.9886 12.6413 13.8796 12.8234 12.996 13.3089C12.0899 13.8067 11.3998 14.6433 11.3998 15.8913C11.3998 16.9626 11.8622 17.6569 12.4859 18.0931C13.072 18.5031 13.7803 18.6696 14.2528 18.7785L19.9173 20.1381C21.1104 20.4344 22.2284 20.7952 23.1561 21.324L23.9037 21.7502V20.8896V16.6147Z" fill="#656867" stroke="#656867"/>
</svg>
