<svg width="32" height="32" viewBox="0 0 32 32" fill="none" xmlns="http://www.w3.org/2000/svg">
<g clip-path="url(#clip0)">
<path d="M17.8298 23.7363H16.8734C16.5221 23.7363 16.2363 24.0222 16.2363 24.3735V27.2553C16.2363 27.6067 16.5221 27.8925 16.8734 27.8925H17.8298C18.7095 27.8925 19.4251 27.1773 19.4251 26.2982V25.3305C19.4251 24.4515 18.7095 23.7363 17.8298 23.7363ZM18.4805 26.2983C18.4805 26.6565 18.1886 26.9479 17.8298 26.9479H17.1809V24.681H17.8298C18.1886 24.681 18.4805 24.9725 18.4805 25.3306V26.2983Z" fill="black"/>
<path d="M14.6284 23.7363H13.0485C12.7876 23.7363 12.5762 23.9478 12.5762 24.2087C12.5762 24.4695 12.7876 24.681 13.0485 24.681H14.5174V25.3421H13.0485C12.7876 25.3421 12.5762 25.5535 12.5762 25.8144C12.5762 26.0753 12.7876 26.2867 13.0485 26.2867H14.5174V26.9478H13.0485C12.7876 26.9478 12.5762 27.1593 12.5762 27.4202C12.5762 27.681 12.7876 27.8925 13.0485 27.8925H14.6284C15.0881 27.8925 15.4621 27.5184 15.4621 27.0586V24.5702C15.4621 24.1104 15.0881 23.7363 14.6284 23.7363Z" fill="black"/>
<path d="M31.9716 26.8648L31.1762 24.0733C31.1048 23.8224 30.8435 23.677 30.5926 23.7485C30.3417 23.82 30.1963 24.0813 30.2678 24.3322L30.8287 26.301L25.1866 23.158C25.1886 23.0895 25.188 19.5734 25.188 19.5734C25.188 19.3125 24.9766 19.101 24.7157 19.101C24.4548 19.101 24.2433 19.3125 24.2433 19.5734C24.2433 19.5734 24.2451 23.1853 24.2381 23.2448C24.2194 23.2586 21.9218 24.5415 21.9218 24.5415C21.3681 21.9581 19.164 19.9803 16.4717 19.7716V18.4862L24.2433 14.1584V17.4076C24.2433 17.6684 24.4548 17.8799 24.7157 17.8799C24.9766 17.8799 25.188 17.6684 25.188 17.4076V13.2585C25.181 13.0223 25.0571 12.8286 24.8162 12.6774L16.4718 8.03068V1.61879L17.9183 3.06633C18.0106 3.15862 18.1315 3.2048 18.2524 3.2048C18.3733 3.2048 18.4941 3.15868 18.5863 3.06658C18.7708 2.88219 18.7709 2.58313 18.5865 2.39861L16.5375 0.348213C16.398 0.205933 16.2022 0.12439 15.9995 0.12439C15.7966 0.12439 15.6062 0.203184 15.4635 0.346151L13.4124 2.39855C13.228 2.58307 13.228 2.88212 13.4126 3.06652C13.5971 3.25098 13.8961 3.25085 14.0805 3.06633L15.5271 1.61879V8.03062L12.2804 9.83807C12.0525 9.96492 11.9706 10.2526 12.0974 10.4805C12.2243 10.7084 12.512 10.7903 12.7398 10.6634L15.9995 8.84886L23.918 13.2584L15.9995 17.6679L8.0811 13.2576L11.0868 11.5719C11.3144 11.4443 11.3954 11.1565 11.2677 10.9289C11.1401 10.7014 10.8523 10.6204 10.6248 10.748L7.18437 12.6774C6.94743 12.8094 6.8119 13.0218 6.8124 13.2601C6.8124 13.2611 6.81259 13.2621 6.81259 13.263C6.81259 13.263 6.81184 23.091 6.81377 23.158L1.17165 26.3002L1.7312 24.3319C1.80256 24.0809 1.65697 23.8198 1.40603 23.7484C1.15521 23.677 0.8939 23.8226 0.822541 24.0736L0.0283507 26.8674C-0.0256993 27.0614 -0.00195476 27.2647 0.0952101 27.4397C0.193062 27.6159 0.359899 27.748 0.550417 27.8011L3.34014 28.5969C3.38345 28.6093 3.42706 28.6151 3.46999 28.6151C3.67563 28.6151 3.86477 28.4798 3.92395 28.2723C3.99549 28.0214 3.85015 27.76 3.59933 27.6885L1.62954 27.1266L7.21849 24.014C7.27848 24.058 9.94842 25.551 9.94842 25.551C9.94467 25.6381 9.94248 25.7258 9.94248 25.8139C9.94248 29.1556 12.6597 31.8744 15.9996 31.8744C19.3395 31.8744 22.0566 29.1557 22.0566 25.8139C22.0566 25.7258 22.0544 25.6382 22.0507 25.551C22.0507 25.551 24.7225 24.0576 24.7821 24.0139L30.3703 27.1269L28.4016 27.6885C28.1507 27.7601 28.0053 28.0215 28.077 28.2723C28.1361 28.4799 28.3253 28.6152 28.5309 28.6152C28.5738 28.6152 28.6175 28.6093 28.6607 28.597L31.4507 27.8011C31.6414 27.7466 31.8065 27.615 31.9039 27.4397C32.0016 27.2633 32.026 27.0601 31.9716 26.8648ZM7.88552 23.3207C7.81723 23.2826 7.78099 23.2588 7.76205 23.2449C7.7553 23.1858 7.75724 14.1586 7.75724 14.1586L15.5271 18.4862V19.7716C12.8349 19.9803 10.6309 21.958 10.077 24.5413L7.88552 23.3207ZM15.9995 30.9297C13.1805 30.9297 10.8871 28.6347 10.8871 25.8138C10.8871 22.9929 13.1805 20.6979 15.9995 20.6979C18.8185 20.6979 21.1119 22.9929 21.1119 25.8138C21.1119 28.6347 18.8185 30.9297 15.9995 30.9297Z" fill="black"/>
</g>
<defs>
<clipPath id="clip0">
<rect width="32" height="32" fill="white"/>
</clipPath>
</defs>
</svg>
