<svg width="32" height="32" viewBox="0 0 32 32" fill="none" xmlns="http://www.w3.org/2000/svg">
<path d="M27.8106 12.3871H23.8023L22.7701 20.6452H18.5806V12.3871H16.5161V10.3226H13.4194V5.16129H12.3381L11.8219 0H8.82271L8.30658 5.16129H7.22581V3.09677H3.09677V5.16129H2.06452V17.3631C0.794839 18.5848 0 20.2968 0 22.1935C0 24.0903 0.794839 25.8023 2.06452 27.024V32H30.9677V20.6452H28.8428L27.8106 12.3871ZM26.8991 13.4194L27.0281 14.4516H24.5848L24.7138 13.4194H26.8991ZM24.4557 15.4839H27.1572L27.8023 20.6452H23.8101L24.4557 15.4839ZM17.5484 20.6452H13.232C12.6483 18.1889 10.7148 16.255 8.25806 15.6712V13.4194H17.5484V20.6452ZM8.62658 27.5308C8.912 27.0565 9.15458 26.4748 9.34452 25.8064H11.0854C10.4423 26.5843 9.59381 27.1819 8.62658 27.5308ZM2.33342 25.8064H4.07432C4.26426 26.4748 4.50632 27.0565 4.79226 27.5308C3.82555 27.1819 2.97703 26.5843 2.33342 25.8064ZM4.79277 16.8563C4.50684 17.3306 4.26477 17.9123 4.07484 18.5806H2.33342C2.97703 17.8028 3.82555 17.2052 4.79277 16.8563ZM5.16129 9.29032H3.09677V8.25806H5.16129V9.29032ZM5.16129 10.3226V11.3548H3.09677V10.3226H5.16129ZM5.16129 12.3871V13.4194H3.09677V12.3871H5.16129ZM9.7951 21.6774C9.77135 20.945 9.70013 20.2514 9.584 19.6129H11.76C12.0831 20.2431 12.2937 20.9394 12.3608 21.6774H9.7951ZM4.656 21.6774C4.68284 20.9306 4.768 20.2369 4.89342 19.6129H8.52594C8.65187 20.2369 8.73652 20.9306 8.76335 21.6774H4.656ZM8.76335 22.7097C8.73652 23.4565 8.65135 24.1502 8.52594 24.7742H4.89342C4.76748 24.1502 4.68284 23.4565 4.656 22.7097H8.76335ZM9.34452 18.5806C9.15458 17.9123 8.91252 17.3306 8.62658 16.8563C9.59381 17.2046 10.4423 17.8028 11.0854 18.5806H9.34452ZM8.26271 18.5806H5.15613C5.56335 17.3043 6.15484 16.5161 6.70916 16.5161C7.26348 16.5161 7.85548 17.3043 8.26271 18.5806ZM3.83535 19.6129C3.71923 20.2514 3.648 20.945 3.62426 21.6774H1.05858C1.12568 20.9394 1.33574 20.2431 1.65935 19.6129H3.83535ZM3.62426 22.7097C3.648 23.4421 3.71923 24.1357 3.83535 24.7742H1.65884C1.33574 24.144 1.12516 23.4477 1.05806 22.7097H3.62426ZM5.15665 25.8064H8.26323C7.856 27.0828 7.26452 27.871 6.71019 27.871C6.15587 27.871 5.56387 27.0828 5.15665 25.8064ZM11.7605 24.7742H9.58452C9.70064 24.1357 9.77187 23.4421 9.79561 22.7097H12.3613C12.2942 23.4477 12.0836 24.144 11.7605 24.7742ZM15.4839 12.3871H10.3226V11.3548H15.4839V12.3871ZM12.3871 10.3226H9.29032V12.3871H7.22581V15.5102C7.05497 15.4968 6.88413 15.4839 6.70968 15.4839C6.53523 15.4839 6.36439 15.4968 6.19355 15.5102V6.19355H12.3871V10.3226ZM9.75742 1.03226H10.8872L11.3001 5.16129H9.344L9.75742 1.03226ZM4.12903 4.12903H6.19355V5.16129H4.12903V4.12903ZM5.16129 6.19355V7.22581H3.09677V6.19355H5.16129ZM3.09677 14.4516H5.16129V15.6712C4.41755 15.8477 3.72232 16.1466 3.09677 16.5486V14.4516ZM3.09677 27.8385C4.1409 28.5089 5.3791 28.9032 6.70968 28.9032C8.04026 28.9032 9.27845 28.5089 10.3226 27.8385V30.9677H3.09677V27.8385ZM15.4839 30.9677H13.4194V26.8387H15.4839V30.9677ZM21.6774 30.9677H19.6129V26.8387H21.6774V30.9677ZM27.871 30.9677H25.8064V26.8387H27.871V30.9677ZM28.9032 30.9677V25.8064H24.7742V30.9677H22.7097V25.8064H18.5806V30.9677H16.5161V25.8064H12.3871V30.9677H11.3548V27.024C12.2674 26.1461 12.9295 25.0142 13.232 23.7419H29.9355V30.9677H28.9032ZM29.9355 22.7097H13.393C13.4065 22.5388 13.4194 22.368 13.4194 22.1935C13.4194 22.0191 13.4065 21.8483 13.393 21.6774H29.9355V22.7097Z" fill="black"/>
<path d="M29.4186 5.16132H28.3724C28.2434 4.00158 27.2576 3.0968 26.0638 3.0968H24.7734V4.12906H26.0638C26.7755 4.12906 27.3541 4.70816 27.3541 5.41938V6.19358H29.4186C30.2723 6.19358 30.967 6.88829 30.967 7.74196C30.967 8.59564 30.2723 9.29035 29.4186 9.29035H27.8702C27.0165 9.29035 26.3218 9.98506 26.3218 10.8387V11.3549H27.3541V10.8387C27.3541 10.5543 27.5853 10.3226 27.8702 10.3226H29.4186C30.8416 10.3226 31.9992 9.16493 31.9992 7.74196C31.9992 6.319 30.8416 5.16132 29.4186 5.16132Z" fill="black"/>
<path d="M20.1285 10.3226H23.7414C24.0263 10.3226 24.2575 10.5543 24.2575 10.8387V11.3549H25.2898V10.8387C25.2898 9.98506 24.595 9.29035 23.7414 9.29035H20.1285C19.8436 9.29035 19.6123 9.05861 19.6123 8.77422C19.6123 8.48983 19.8436 8.25809 20.1285 8.25809H23.2252V7.22583H22.193C21.3393 7.22583 20.6446 6.53112 20.6446 5.67745C20.6446 4.82377 21.3393 4.12906 22.193 4.12906H23.7414V3.0968H22.193C20.77 3.0968 19.6123 4.25448 19.6123 5.67745C19.6123 6.26067 19.8141 6.79332 20.1419 7.22583H20.1285C19.2748 7.22583 18.5801 7.92054 18.5801 8.77422C18.5801 9.6279 19.2748 10.3226 20.1285 10.3226Z" fill="black"/>
<path d="M15.4844 14.4517H16.5166V15.4839H15.4844V14.4517Z" fill="black"/>
<path d="M11.3555 14.4517H12.3877V15.4839H11.3555V14.4517Z" fill="black"/>
<path d="M9.29102 14.4517H10.3233V15.4839H9.29102V14.4517Z" fill="black"/>
<path d="M13.4199 14.4517H14.4522V15.4839H13.4199V14.4517Z" fill="black"/>
<path d="M13.4199 16.5161H14.4522V17.5484H13.4199V16.5161Z" fill="black"/>
<path d="M15.4844 16.5161H16.5166V17.5484H15.4844V16.5161Z" fill="black"/>
<path d="M13.4199 18.5807H14.4522V19.6129H13.4199V18.5807Z" fill="black"/>
<path d="M15.4844 18.5807H16.5166V19.6129H15.4844V18.5807Z" fill="black"/>
</svg>
