<svg width="32" height="32" viewBox="0 0 32 32" fill="none" xmlns="http://www.w3.org/2000/svg">
<path d="M26 16.628V15.3465L26.431 15.185C28.566 14.3845 30 12.315 30 10.035V7.5C30.5515 7.5 31 7.0515 31 6.5V5.5C31 4.9485 30.5515 4.5 30 4.5H29.9705C29.7205 2.2535 27.812 0.5 25.5 0.5H21.5C19.188 0.5 17.279 2.2535 17.0295 4.5H17C16.4485 4.5 16 4.9485 16 5.5V6.5C16 7.0515 16.4485 7.5 17 7.5H18V8.3485L17.2565 9.463C17.0885 9.7155 17 10.009 17 10.3115C17 10.9265 17.342 11.4795 17.8925 11.7555L18 11.809V13C18 14.3785 19.1215 15.5 20.5 15.5H22V16.562L21.411 16.6405C18.5715 17.0195 16.1875 18.87 15.1045 21.5H12.5V15H15.5V11H8.5V12.5H7.5V11H4.5V8H7.5V3H0.5V8H3.5V11H0.5V15H7.5V13.5H8.5V15H11.5V21.5H9.5V17.5H7C5.6215 17.5 4.5 18.6215 4.5 20V29C4.5 30.3785 5.6215 31.5 7 31.5H21.5V29.5H26.201C29.123 29.5 31.5 27.1225 31.5 24.2005C31.5 20.748 29.257 17.688 26 16.628ZM1.5 4H6.5V7H1.5V4ZM6.5 14H1.5V12H6.5V14ZM9.5 12H14.5V14H9.5V12ZM29 10.035C29 11.9 27.8265 13.5935 26.08 14.2485L26 14.2785V13.25L27.1335 12.4C27.676 11.9925 28 11.3445 28 10.6665C28 9.528 27.117 8.592 26 8.5065V7.5H29V10.035ZM21.5 1.5H25.5C27.2595 1.5 28.716 2.807 28.96 4.5H18.04C18.284 2.807 19.7405 1.5 21.5 1.5ZM17 5.5H30V6.5H17V5.5ZM20.5 14.5C19.673 14.5 19 13.827 19 13V11.191L18.34 10.861C18.13 10.756 18 10.5455 18 10.3115C18 10.2065 18.031 10.105 18.0885 10.018L19 8.6515V7.5H25V9.5H25.8335C26.4765 9.5 27 10.0235 27 10.6665C27 11.0315 26.8255 11.381 26.533 11.6L25 12.75V17C25 17.5515 24.5515 18 24 18C23.4485 18 23 17.5515 23 17V14.5H20.5ZM7 18.5H8.5V21.5H7C6.173 21.5 5.5 20.827 5.5 20C5.5 19.173 6.173 18.5 7 18.5ZM20.5 30.5H7C6.173 30.5 5.5 29.827 5.5 29V21.987C5.919 22.3045 6.435 22.5 7 22.5H20.5V24.5C19.397 24.5 18.5 25.397 18.5 26.5V27.5C18.5 28.603 19.397 29.5 20.5 29.5V30.5ZM22.5 28.5H20.5C19.9485 28.5 19.5 28.0515 19.5 27.5V26.5C19.5 25.9485 19.9485 25.5 20.5 25.5H21.3785C21.6455 25.5 21.8965 25.604 22.086 25.793L22.5 26.207V28.5ZM26.201 28.5H23.5V26.5H25.4395C26.2565 26.5 27.025 26.1815 27.6035 25.6035C28.1815 25.026 28.5 24.2575 28.5 23.4395V22H27.5V23.4395C27.5 23.9905 27.2855 24.5075 26.8965 24.8965C26.5125 25.28 25.9815 25.5 25.4395 25.5H23.207L22.793 25.086C22.444 24.737 21.988 24.5415 21.5 24.512V21.5H16.199C17.212 19.4035 19.1995 17.9445 21.5435 17.632L22.0895 17.5595C22.333 18.389 23.0925 19 24 19C24.8755 19 25.613 18.431 25.8835 17.6465C28.6265 18.6295 30.5 21.251 30.5 24.2005C30.5 26.5715 28.5715 28.5 26.201 28.5Z" fill="black"/>
</svg>
