<svg width="32" height="32" viewBox="0 0 32 32" fill="none" xmlns="http://www.w3.org/2000/svg">
<path d="M31.9032 14.2401C31.8799 14.0265 31.7143 13.8561 31.5014 13.8267L28.8792 13.4644C28.7657 12.8848 28.6127 12.3124 28.4227 11.7554L30.5112 10.1314C30.6809 9.9995 30.7391 9.76919 30.6526 9.57256C30.4148 9.03225 30.1469 8.50319 29.8564 8.00006C29.5658 7.49669 29.2416 7.00012 28.8926 6.52431C28.7656 6.35106 28.5371 6.28638 28.338 6.36725L25.8843 7.36513C25.4966 6.92188 25.0781 6.50331 24.6349 6.11575L25.6327 3.66206C25.7137 3.463 25.649 3.23444 25.4757 3.10737C24.9995 2.75831 24.503 2.434 23.9999 2.14363C23.4967 1.85313 22.9676 1.58525 22.4274 1.3475C22.2308 1.261 22.0004 1.31919 21.8685 1.48881L20.2445 3.57737C19.6874 3.38725 19.1151 3.23438 18.5356 3.12087L18.1731 0.498625C18.1437 0.285812 17.9734 0.120188 17.7598 0.0968125C17.1732 0.0325625 16.5811 0 16 0C15.4189 0 14.8268 0.0325625 14.2401 0.09675C14.0265 0.120125 13.8561 0.285688 13.8267 0.498563L13.4644 3.12081C12.8849 3.23431 12.3125 3.38719 11.7554 3.57731L10.1314 1.48875C9.9995 1.31912 9.76919 1.26087 9.57256 1.34744C9.03237 1.58519 8.50338 1.853 8.00006 2.14356C7.49688 2.43406 7.00037 2.75831 6.52431 3.10737C6.35106 3.23444 6.28631 3.46294 6.36725 3.662L7.36513 6.11569C6.92188 6.50338 6.50338 6.92188 6.11575 7.36513L3.66206 6.36725C3.46294 6.28631 3.2345 6.351 3.10744 6.52431C2.7585 7.00012 2.43425 7.49669 2.14363 8.00006C1.85313 8.50325 1.58525 9.03231 1.3475 9.57263C1.26094 9.76925 1.31919 9.99963 1.48881 10.1315L3.57737 11.7555C3.38725 12.3126 3.23438 12.8849 3.12087 13.4644L0.498625 13.8268C0.285812 13.8562 0.12025 14.0266 0.0968125 14.2401C0.0325625 14.8267 0 15.4189 0 16C0 16.5811 0.0325625 17.1733 0.0968125 17.7599C0.12025 17.9735 0.28575 18.1439 0.498625 18.1733L3.12087 18.5356C3.23438 19.1151 3.38731 19.6876 3.57737 20.2445L1.48875 21.8686C1.31919 22.0005 1.26087 22.2308 1.34744 22.4274C1.58512 22.9676 1.853 23.4967 2.14356 24.0001C2.43419 24.5034 2.75844 24.9999 3.10731 25.4757C3.23438 25.649 3.463 25.7138 3.662 25.6328L6.11569 24.6349C6.50331 25.0782 6.92175 25.4966 7.36513 25.8844L6.36725 28.3381C6.28631 28.5371 6.351 28.7657 6.52431 28.8927C7.00025 29.2417 7.49675 29.5659 8.00006 29.8565C8.50319 30.147 9.03231 30.4149 9.57263 30.6527C9.76925 30.7393 9.99963 30.681 10.1315 30.5114L11.7555 28.4228C12.3125 28.6129 12.8849 28.7658 13.4644 28.8793L13.8269 31.5016C13.8563 31.7144 14.0266 31.8799 14.2402 31.9034C14.8267 31.9674 15.4188 32 16 32C16.5811 32 17.1733 31.9674 17.7599 31.9032C17.9735 31.8797 18.1439 31.7143 18.1733 31.5014L18.5356 28.8791C19.1152 28.7656 19.6876 28.6127 20.2446 28.4226L21.8686 30.5112C22.0005 30.6807 22.2307 30.739 22.4274 30.6525C22.9677 30.4148 23.4968 30.1469 24 29.8564C24.5033 29.5658 24.9999 29.2416 25.4757 28.8926C25.649 28.7656 25.7138 28.5371 25.6328 28.338L24.6349 25.8843C25.0781 25.4967 25.4967 25.0782 25.8843 24.6349L28.338 25.6327C28.5371 25.7137 28.7656 25.649 28.8927 25.4757C29.2416 24.9998 29.5658 24.5033 29.8564 23.9999C30.1469 23.4967 30.4148 22.9676 30.6526 22.4274C30.7391 22.2308 30.6809 22.0004 30.5112 21.8685L28.4227 20.2445C28.6128 19.6874 28.7657 19.1151 28.8792 18.5356L31.5014 18.1731C31.7143 18.1437 31.8799 17.9734 31.9032 17.7598C31.9674 17.1732 32 16.5811 32 16C32 15.4189 31.9674 14.8268 31.9032 14.2401ZM31.0066 17.2952L28.4147 17.6534C28.2118 17.6814 28.0506 17.8379 28.0166 18.0399C27.8901 18.7912 27.692 19.5325 27.428 20.2433C27.3567 20.4351 27.4181 20.6509 27.5797 20.7766L29.6437 22.3816C29.4592 22.7754 29.2583 23.1608 29.0446 23.5312C28.8307 23.9016 28.5973 24.2683 28.3486 24.6249L25.9238 23.6388C25.7343 23.5618 25.5169 23.6164 25.3864 23.7738C24.9013 24.3588 24.3588 24.9013 23.774 25.3862C23.6166 25.5168 23.5619 25.7342 23.639 25.9237L24.625 28.3486C24.2683 28.5973 23.9017 28.8306 23.5312 29.0445C23.1609 29.2583 22.7756 29.4592 22.3817 29.6437L20.7766 27.5797C20.6511 27.4182 20.4353 27.3567 20.2434 27.428C19.5328 27.692 18.7914 27.8901 18.0399 28.0166C17.838 28.0507 17.6815 28.2119 17.6535 28.4147L17.2953 31.0066C16.8619 31.0437 16.4277 31.0625 16 31.0625C15.5723 31.0625 15.1381 31.0437 14.7048 31.0066L14.3466 28.4147C14.3186 28.2118 14.1621 28.0507 13.9601 28.0166C13.2087 27.8901 12.4674 27.692 11.7567 27.428C11.565 27.3567 11.3491 27.4181 11.2234 27.5797L9.61844 29.6437C9.22456 29.4592 8.83919 29.2583 8.46881 29.0445C8.09838 28.8306 7.73175 28.5973 7.37506 28.3485L8.36119 25.9237C8.43825 25.7343 8.38356 25.5168 8.22619 25.3863C7.64119 24.9013 7.09869 24.3587 6.61375 23.7739C6.48325 23.6165 6.26575 23.5617 6.07631 23.6389L3.6515 24.625C3.40275 24.2684 3.16937 23.9017 2.9555 23.5312C2.74169 23.1608 2.54081 22.7754 2.35631 22.3816L4.42037 20.7766C4.58187 20.651 4.64325 20.4351 4.57206 20.2433C4.30806 19.5326 4.11 18.7913 3.98344 18.0399C3.94938 17.8379 3.78819 17.6814 3.58538 17.6534L0.993438 17.2952C0.95625 16.8619 0.9375 16.4277 0.9375 16C0.9375 15.5723 0.95625 15.1381 0.993375 14.7048L3.58531 14.3466C3.78819 14.3186 3.94938 14.1621 3.98338 13.9601C4.10994 13.2089 4.30794 12.4675 4.572 11.7567C4.64325 11.5649 4.58187 11.3491 4.42031 11.2234L2.35625 9.61837C2.54081 9.22456 2.74169 8.83912 2.9555 8.46875C3.16937 8.09831 3.40275 7.73163 3.6515 7.375L6.07631 8.36112C6.26581 8.43819 6.48325 8.3835 6.61375 8.22612C7.09875 7.64125 7.64119 7.09869 8.22612 6.61369C8.38356 6.48319 8.43819 6.26569 8.36112 6.07625L7.375 3.65144C7.73175 3.40263 8.09838 3.16931 8.46875 2.95544C8.83919 2.74162 9.22456 2.54075 9.61837 2.35625L11.2234 4.42031C11.349 4.58181 11.5647 4.64325 11.7567 4.572C12.4675 4.30794 13.2088 4.10988 13.9601 3.98338C14.1621 3.94938 14.3186 3.78813 14.3466 3.58531L14.7048 0.993375C15.1381 0.95625 15.5723 0.9375 16 0.9375C16.4277 0.9375 16.8619 0.95625 17.2952 0.993375L17.6534 3.58531C17.6814 3.78819 17.8379 3.94938 18.0399 3.98338C18.7911 4.10994 19.5325 4.30794 20.2433 4.572C20.4349 4.64319 20.6509 4.58187 20.7766 4.42031L22.3816 2.35625C22.7754 2.54081 23.1608 2.74169 23.5312 2.95544C23.9014 3.16919 24.2681 3.40256 24.6249 3.65144L23.6389 6.07625C23.5618 6.26569 23.6165 6.48319 23.7739 6.61369C24.3587 7.09863 24.9013 7.64113 25.3863 8.22606C25.5169 8.3835 25.7344 8.43819 25.9237 8.36106L28.3486 7.375C28.5972 7.73163 28.8306 8.09831 29.0446 8.46875C29.2584 8.83912 29.4592 9.2245 29.6437 9.61837L27.5797 11.2234C27.4182 11.349 27.3568 11.5649 27.428 11.7567C27.692 12.4673 27.8901 13.2086 28.0166 13.9601C28.0507 14.1621 28.2119 14.3186 28.4147 14.3466L31.0066 14.7048C31.0437 15.1381 31.0625 15.5723 31.0625 16C31.0625 16.4277 31.0437 16.8619 31.0066 17.2952Z" fill="black"/>
<path d="M14.5938 16C14.5938 16.7754 15.2246 17.4062 16 17.4062C16.7754 17.4062 17.4062 16.7754 17.4062 16C17.4062 15.2246 16.7754 14.5938 16 14.5938C15.2246 14.5938 14.5938 15.2246 14.5938 16ZM16.4688 16C16.4688 16.2585 16.2585 16.4688 16 16.4688C15.7415 16.4688 15.5312 16.2585 15.5312 16C15.5312 15.7415 15.7415 15.5312 16 15.5312C16.2585 15.5312 16.4688 15.7415 16.4688 16Z" fill="black"/>
<path d="M12.7188 16C12.7188 17.8093 14.1907 19.2812 16 19.2812C17.8093 19.2812 19.2812 17.8093 19.2812 16C19.2812 14.1907 17.8093 12.7188 16 12.7188C14.1907 12.7188 12.7188 14.1907 12.7188 16ZM18.3438 16C18.3438 17.2924 17.2924 18.3438 16 18.3438C14.7076 18.3438 13.6562 17.2924 13.6562 16C13.6562 14.7076 14.7076 13.6562 16 13.6562C17.2924 13.6562 18.3438 14.7076 18.3438 16Z" fill="black"/>
<path d="M24.1688 19.555C24.5721 19.3936 24.8736 19.0619 24.9961 18.645C25.2474 17.7893 25.3749 16.8994 25.3749 16C25.3749 13.8536 24.669 11.8339 23.3334 10.1592C22.0375 8.53419 20.2172 7.37206 18.208 6.88694C17.7849 6.78475 17.3463 6.88044 17.0048 7.14937C16.6641 7.41756 16.4688 7.82006 16.4688 8.25362V11.4064C16.4688 11.6294 16.6257 11.8215 16.8442 11.8658C18.7996 12.2627 20.2188 14.0014 20.2188 16C20.2188 16.4546 20.1457 16.9041 20.0015 17.336C19.931 17.5473 20.0189 17.779 20.2118 17.8904L22.9431 19.4673C23.1607 19.593 23.4021 19.6566 23.645 19.6566C23.8216 19.6566 23.9991 19.6229 24.1688 19.555ZM20.9992 17.2625C21.1035 16.85 21.1562 16.4269 21.1562 16C21.1562 13.6873 19.6007 11.6592 17.4062 11.0381V8.25362C17.4062 8.10925 17.4713 7.97525 17.5846 7.88594C17.699 7.79594 17.8459 7.76394 17.9879 7.79825C21.7853 8.71519 24.4374 12.0879 24.4374 16C24.4374 16.8099 24.3227 17.6109 24.0966 18.3808C24.0557 18.52 23.9551 18.6308 23.8204 18.6846C23.6861 18.7385 23.5371 18.7277 23.4117 18.6554L20.9992 17.2625Z" fill="black"/>
<path d="M14.9952 7.14937C14.6536 6.88044 14.2151 6.78475 13.792 6.88694C11.7828 7.37212 9.9625 8.53419 8.6665 10.1592C7.33094 11.8339 6.625 13.8536 6.625 16C6.625 16.8994 6.7525 17.7893 7.00387 18.6451C7.12631 19.0619 7.42787 19.3936 7.83112 19.5551C8.00087 19.623 8.17831 19.6566 8.355 19.6566C8.59787 19.6566 8.83931 19.593 9.05694 19.4673L11.7882 17.8904C11.9811 17.779 12.069 17.5473 11.9985 17.3361C11.8543 16.9041 11.7812 16.4546 11.7812 16C11.7812 14.0014 13.2004 12.2627 15.1558 11.8658C15.3743 11.8215 15.5312 11.6294 15.5312 11.4064V8.25362C15.5312 7.82006 15.3359 7.41756 14.9952 7.14937ZM14.5938 11.0381C12.3993 11.6592 10.8438 13.6873 10.8438 16C10.8438 16.4268 10.8964 16.8499 11.0007 17.2625L8.58813 18.6554C8.46275 18.7279 8.31381 18.7385 8.17944 18.6846C8.04481 18.6308 7.94413 18.52 7.90325 18.3808C7.67719 17.6109 7.5625 16.8099 7.5625 16C7.5625 12.0879 10.2146 8.71519 14.0121 7.79825C14.0494 7.78919 14.0871 7.78481 14.1244 7.78481C14.229 7.78481 14.3311 7.81963 14.4153 7.886C14.5288 7.97531 14.5938 8.10931 14.5938 8.25369V11.0381Z" fill="black"/>
<path d="M22.4728 20.278L19.743 18.7019C19.5502 18.5906 19.3056 18.6303 19.1579 18.7969C18.3567 19.7006 17.2059 20.2188 16.0007 20.2188C14.7955 20.2188 13.6448 19.7006 12.8436 18.7969C12.6959 18.6302 12.4513 18.5905 12.2585 18.7019L9.52868 20.278C9.15237 20.4952 8.90093 20.8666 8.83887 21.297C8.77712 21.7252 8.91243 22.1501 9.20999 22.4627C10.9976 24.3408 13.4093 25.3751 16.0007 25.3751C18.5922 25.3751 21.0038 24.3408 22.7914 22.4628C23.089 22.1501 23.2243 21.7252 23.1625 21.297C23.1005 20.8666 22.8491 20.4953 22.4728 20.278ZM22.1124 21.8164C20.5035 23.5067 18.333 24.4376 16.0007 24.4376C13.6685 24.4376 11.498 23.5066 9.88905 21.8163C9.79087 21.7132 9.7463 21.5727 9.7668 21.4308C9.78755 21.2868 9.87162 21.1626 9.99743 21.0899L12.4087 19.6978C13.3677 20.6289 14.6565 21.1563 16.0007 21.1563C17.345 21.1563 18.6337 20.6289 19.5928 19.6978L22.004 21.0899C22.1299 21.1625 22.2139 21.2868 22.2347 21.4308C22.2551 21.5727 22.2105 21.7133 22.1124 21.8164Z" fill="black"/>
<path d="M16 4.75C12.3357 4.75 8.89019 6.54387 6.78325 9.54862C6.63462 9.76062 6.68594 10.0529 6.89787 10.2016C7.10981 10.3501 7.40213 10.2989 7.55081 10.0869C9.48244 7.33213 12.641 5.6875 16 5.6875C21.6863 5.6875 26.3125 10.3137 26.3125 16C26.3125 21.6863 21.6863 26.3125 16 26.3125C10.3137 26.3125 5.6875 21.6863 5.6875 16C5.6875 14.4771 6.01231 13.0099 6.65287 11.6393C6.7625 11.4048 6.66125 11.1258 6.42669 11.0162C6.19206 10.9065 5.91313 11.0078 5.80356 11.2424C5.10444 12.7381 4.75 14.3388 4.75 16C4.75 22.2033 9.79675 27.25 16 27.25C22.2033 27.25 27.25 22.2033 27.25 16C27.25 9.79675 22.2033 4.75 16 4.75Z" fill="black"/>
</svg>
