<svg width="32" height="32" viewBox="0 0 32 32" fill="none" xmlns="http://www.w3.org/2000/svg">
<path d="M31.4661 0H7.46613C7.1716 0 6.9328 0.238799 6.9328 0.533332V8.53332H7.99947V1.06666H30.9327V30.3999C30.9379 30.6804 30.7215 30.9153 30.4415 30.9333C30.3957 30.9333 30.3498 30.9295 30.304 30.9285C30.2096 30.9258 30.1152 30.9237 30.0224 30.9141C30.0144 30.9141 30.0069 30.9141 29.9989 30.9109C28.257 30.7205 26.8811 29.3459 26.689 27.6042C26.689 27.5967 26.6864 27.5887 26.6853 27.5813C26.6724 27.4545 26.666 27.3273 26.6661 27.1999V26.1333C26.6661 25.8387 26.4273 25.5999 26.1328 25.5999H7.99947V16H6.9328V25.5999H2.66614C2.37161 25.5999 2.13281 25.8387 2.13281 26.1333V27.1999C2.13575 29.8497 4.28307 31.997 6.9328 31.9999H30.4527C31.3182 31.9773 32.0061 31.2657 31.9994 30.3999V0.533332C31.9994 0.238799 31.7606 0 31.4661 0ZM6.9328 30.9333C4.87194 30.9309 3.20181 29.2608 3.19948 27.1999V26.6666H25.5994V27.1999C25.6002 27.3758 25.6103 27.5515 25.6298 27.7263C25.6346 27.7727 25.6437 27.8175 25.6501 27.8634C25.6677 27.9925 25.689 28.121 25.7173 28.2474C25.7269 28.2917 25.7392 28.3354 25.7504 28.3797C25.7829 28.5082 25.8197 28.6346 25.8624 28.7594C25.8746 28.7951 25.8874 28.8303 25.9008 28.8661C25.9493 28.9983 26.0042 29.1274 26.0645 29.2549C26.0773 29.281 26.089 29.3082 26.1018 29.3322C26.1687 29.4673 26.2421 29.5987 26.3221 29.7263C26.3328 29.7434 26.3424 29.761 26.353 29.7797C26.44 29.9159 26.5338 30.0476 26.6341 30.1743L26.6512 30.1973C26.7676 30.3435 26.8922 30.4829 27.0245 30.6149C27.1394 30.7287 27.2584 30.8353 27.3818 30.9349L6.9328 30.9333Z" fill="black"/>
<path d="M17.6 14.9333C17.7414 14.9333 17.877 14.877 17.977 14.777L20.1104 12.6437C20.3186 12.4354 20.3186 12.0978 20.1104 11.8896L17.977 9.75624C17.877 9.65624 17.7414 9.59998 17.6 9.59998H2.66666C1.19393 9.59998 0 10.7939 0 12.2666C0 13.7394 1.19393 14.9333 2.66666 14.9333H17.6ZM17.4624 10.7498L18.9792 12.2666L17.4624 13.7834L17.0832 12.2666L17.4624 10.7498ZM4.26666 10.6666H16.384L16.1173 11.7333H5.33332V12.8H16.1173L16.384 13.8666H4.26666V10.6666ZM1.06666 12.2666C1.06666 11.383 1.783 10.6666 2.66666 10.6666H3.19999V13.8666H2.66666C1.783 13.8666 1.06666 13.1503 1.06666 12.2666Z" fill="black"/>
<path d="M12.2656 22.9333H28.2656C28.5601 22.9333 28.7989 22.6945 28.7989 22.4V6.40002C28.7989 6.10549 28.5601 5.86675 28.2655 5.86682C28.1241 5.86682 27.9885 5.92302 27.8885 6.02295L11.8886 22.0229C11.6803 22.2312 11.6804 22.5689 11.8887 22.7772C11.9887 22.8771 12.1242 22.9333 12.2656 22.9333ZM27.7323 7.68748V9.06668H26.6656V10.1333H27.7323V11.2H26.6656V12.2667H27.7323V13.3333H26.6656V14.4H27.7323V15.4667H26.6656V16.5333H27.7323V17.6H26.6656V18.6666H27.7323V19.7333H26.6656V20.8H27.7323V21.8666H26.6656V20.8H25.599V21.8666H24.5323V20.8H23.4656V21.8666H22.399V20.8H21.3323V21.8666H20.2656V20.8H19.199V21.8666H18.1323V20.8H17.0656V21.8666H15.999V20.8H14.9323V21.8666H13.5531L27.7323 7.68748Z" fill="black"/>
<path d="M19.9922 19.7332H25.0669C25.3614 19.7332 25.6002 19.4944 25.6002 19.1999V14.1252C25.6002 13.8307 25.3613 13.592 25.0667 13.592C24.9253 13.592 24.7898 13.6482 24.6898 13.7482L19.6151 18.8228C19.4069 19.0311 19.4069 19.3688 19.6153 19.5771C19.7153 19.677 19.8508 19.7332 19.9922 19.7332ZM24.5335 15.4132V18.6666H21.2802L24.5335 15.4132Z" fill="black"/>
<path d="M24.5338 3.19995H13.8672V4.26662H24.5338V3.19995Z" fill="black"/>
<path d="M26.1342 5.33337H12.2676V6.40004H26.1342V5.33337Z" fill="black"/>
<path d="M12.2664 16.5333H9.06641V17.6H12.2664V16.5333Z" fill="black"/>
<path d="M11.1997 18.6666H9.06641V19.7333H11.1997V18.6666Z" fill="black"/>
</svg>
