<svg width="32" height="32" viewBox="0 0 32 32" fill="none" xmlns="http://www.w3.org/2000/svg">
<g clip-path="url(#clip0)">
<path d="M32 13.4194H30.8402L29.1116 14.3289C28.9171 14.2215 28.7147 14.1305 28.4965 14.0759L26.3221 13.5318V13.2845C27.284 12.6132 27.871 11.504 27.871 10.3226V9.42036C27.871 7.41532 26.2999 5.7374 24.369 5.67893C24.2709 5.67641 24.1744 5.67994 24.0774 5.68473L24.6411 4.36492L21.908 1.63256L20.2969 2.6812C19.6847 2.33644 19.0373 2.06804 18.3649 1.87979L17.967 0H14.0335L13.6356 1.88029C12.9632 2.06855 12.3153 2.33695 11.7036 2.6817L10.0925 1.63306L7.36164 4.36391L7.91583 5.68473C7.89466 5.68372 7.8745 5.67994 7.85333 5.67944C6.86492 5.65071 5.93397 6.01134 5.22681 6.69783C4.51865 7.38382 4.12903 8.30443 4.12903 9.29032V10.3226C4.12903 11.504 4.71547 12.6127 5.67742 13.284V13.5318L4.25907 13.8863L1.68826 12.3871H0V23.0819L5.07762 24.7742H6.06653L6.19002 24.3417L7.74647 25.276C7.77193 26.1222 8.4506 26.8032 9.29612 26.8329C9.32586 27.6749 10.0025 28.3516 10.8445 28.3813C10.8742 29.2233 11.5509 29.8999 12.3929 29.9297C12.4236 30.7913 13.1293 31.4839 13.998 31.4839C14.3206 31.4839 14.6368 31.3833 14.9027 31.2041L15.3599 31.6079C15.6464 31.8601 16.0154 32 16.3984 32H16.494C17.3528 32 18.0517 31.3057 18.0625 30.4496C18.912 30.4388 19.6 29.7508 19.6109 28.9012C20.4609 28.8904 21.1494 28.2014 21.1593 27.3513C22.0171 27.3311 22.7097 26.6303 22.7097 25.7676C22.7097 25.7157 22.7072 25.6646 22.7019 25.6129L32 20.9642V13.4194ZM26.8387 9.42036V10.3226C26.8387 11.2387 26.3438 12.0945 25.5469 12.5559L25.2888 12.7051L25.2908 14.3385L27.8695 14.9826L22.1935 17.97V16.5796C22.1935 15.8858 21.9133 15.2505 21.4544 14.781L23.2258 14.3385V12.7039L22.9682 12.5549C22.1719 12.0945 21.6774 11.2387 21.6774 10.3226V9.29032C21.6774 8.58644 21.9556 7.92818 22.4614 7.438C22.9667 6.94808 23.6371 6.68397 24.338 6.71119C25.7167 6.75252 26.8387 7.96799 26.8387 9.42036ZM16.7782 17.5643L14.4418 16.8175C13.377 16.4763 12.2245 16.4254 11.1346 16.6668L10.8387 16.7324V16.5796C10.8387 15.8679 11.3213 15.25 12.0113 15.0771L14.9677 14.3385V12.7039L14.7102 12.5549C13.9138 12.0945 13.4194 11.2387 13.4194 10.3226V9.29032C13.4194 8.58644 13.6976 7.92818 14.2034 7.438C14.7087 6.94808 15.3833 6.68397 16.0799 6.71119C17.4587 6.75252 18.5806 7.96799 18.5806 9.42036V10.3226C18.5806 11.2387 18.0857 12.0945 17.2888 12.5559L17.0307 12.7051L17.0328 14.3385L19.9887 15.0771C20.6787 15.25 21.1613 15.8679 21.1613 16.5796V18.5136L21.0338 18.5806H20.7175L17.5444 17.6739C17.2944 17.6031 17.0368 17.5741 16.7782 17.5643ZM10.9544 7.7248C11.9236 5.84677 13.8745 4.64516 16 4.64516C18.1053 4.64516 20.0479 5.83065 21.0244 7.68322C20.7787 8.17591 20.6452 8.72152 20.6452 9.29032V10.3226C20.6452 11.504 21.2316 12.6127 22.1935 13.284V13.5318L20.129 14.0486L18.064 13.5318V13.2845C19.026 12.6132 19.6129 11.504 19.6129 10.3226V9.42036C19.6129 7.41532 18.0418 5.7374 16.1109 5.67893C15.123 5.64995 14.1915 6.01084 13.4844 6.69733C12.7767 7.38382 12.3871 8.30443 12.3871 9.29032V10.3226C12.3871 11.504 12.9735 12.6127 13.9355 13.284V13.5318L11.871 14.0486L9.80595 13.5318V13.2845C10.7679 12.6132 11.3548 11.504 11.3548 10.3226V9.42036C11.3548 8.813 11.2087 8.23639 10.9544 7.7248ZM8.58064 4.60333L10.2296 2.95439L11.6809 3.89894L11.9587 3.72858C12.6545 3.30217 13.4065 2.98992 14.1935 2.80166L14.5111 2.72555L14.8702 1.03226H17.1303L17.4884 2.72505L17.8059 2.80091C18.593 2.98942 19.345 3.30166 20.0408 3.72807L20.3185 3.89844L21.7699 2.95388L23.4168 4.60131L22.8314 5.97203C22.433 6.1434 22.0635 6.38458 21.7419 6.69632C21.7208 6.71699 21.7026 6.73916 21.682 6.76033C20.466 4.82737 18.3163 3.6129 16 3.6129C13.6671 3.6129 11.5113 4.83871 10.2984 6.79133C9.97379 6.45161 9.5877 6.17641 9.15978 5.98412L8.58064 4.60333ZM6.70968 14.3385V12.7039L6.45212 12.5549C5.65575 12.0945 5.16129 11.2387 5.16129 10.3226V9.29032C5.16129 8.58644 5.43952 7.92818 5.94531 7.438C6.4506 6.94808 7.12248 6.68397 7.82182 6.71119C9.2006 6.75252 10.3226 7.96799 10.3226 9.42036V10.3226C10.3226 11.2387 9.82762 12.0945 9.03075 12.5559L8.77268 12.7051L8.7747 14.3385L10.5456 14.781C10.0867 15.2505 9.80645 15.8858 9.80645 16.5796V16.9619L8.19657 17.3198L8.23841 17.1736L8.25806 16.2198L5.53604 14.6318L6.70968 14.3385ZM1.03226 13.4194H1.40852L5.12046 15.5844L3.24748 23.0761L1.03226 22.3374V13.4194ZM5.24496 23.7419L4.22908 23.4035L6.04864 16.126L7.22581 16.8125V16.9599L5.28831 23.7419H5.24496ZM8.77419 25.2278C8.77419 25.0756 8.83568 24.9264 8.94355 24.8185L9.85081 23.9113C9.95867 23.8034 10.1079 23.7419 10.2601 23.7419C10.5791 23.7419 10.8387 24.0015 10.8387 24.3206C10.8387 24.4728 10.7772 24.622 10.6694 24.7298L9.7621 25.6371C9.65423 25.745 9.50504 25.8064 9.35282 25.8064C9.03377 25.8064 8.77419 25.5469 8.77419 25.2278ZM10.3226 26.7762C10.3226 26.624 10.3841 26.4748 10.4919 26.3669L11.3992 25.4597C11.5071 25.3518 11.6562 25.2903 11.8085 25.2903C12.1275 25.2903 12.3871 25.5499 12.3871 25.8689C12.3871 26.0212 12.3256 26.1704 12.2177 26.2782L11.3105 27.1855C11.2026 27.2933 11.0534 27.3548 10.9012 27.3548C10.5822 27.3548 10.3226 27.0953 10.3226 26.7762ZM11.871 28.3246C11.871 28.1724 11.9325 28.0232 12.0403 27.9153L12.9476 27.0081C13.0554 26.9002 13.2046 26.8387 13.3569 26.8387C13.6759 26.8387 13.9355 27.0983 13.9355 27.4173C13.9355 27.5696 13.874 27.7188 13.7661 27.8266L12.8589 28.7339C12.751 28.8417 12.6018 28.9032 12.4496 28.9032C12.1305 28.9032 11.871 28.6436 11.871 28.3246ZM13.998 30.4516C13.6789 30.4516 13.4194 30.192 13.4194 29.873C13.4194 29.7208 13.4808 29.5716 13.5887 29.4637L14.496 28.5564C14.6038 28.4486 14.753 28.3871 14.9052 28.3871C15.2243 28.3871 15.4839 28.6467 15.4839 28.9657C15.4839 29.1179 15.4224 29.2671 15.3145 29.375L14.4073 30.2823C14.2994 30.3901 14.1502 30.4516 13.998 30.4516ZM16.494 30.9677H16.3984C16.2669 30.9677 16.1409 30.9199 16.0428 30.8329L15.6568 30.4924L16.0444 30.1048C16.1827 29.9665 16.2901 29.8019 16.3695 29.6253L16.8387 30.0159C16.9614 30.1182 17.0323 30.2689 17.0323 30.4294C17.0323 30.7263 16.7908 30.9677 16.494 30.9677ZM21.1225 26.3226H21.0333C20.9037 26.3226 20.7772 26.2767 20.6782 26.1935L17.8793 23.8611L17.218 24.6545L19.936 26.9191C20.0582 27.0214 20.129 27.1721 20.129 27.3327C20.129 27.6295 19.8876 27.871 19.5907 27.871H19.4781C19.3528 27.871 19.2303 27.8266 19.1338 27.746L16.3304 25.41L15.6691 26.2034L18.3871 28.4682C18.5098 28.5698 18.5806 28.7205 18.5806 28.881C18.5806 29.1779 18.3392 29.4194 18.0423 29.4194C17.8443 29.4194 17.6512 29.349 17.4992 29.2228L16.3473 28.2626C16.0935 27.744 15.5721 27.3823 14.9614 27.3606C14.9317 26.5186 14.255 25.842 13.4131 25.8122C13.3833 24.9703 12.7067 24.2936 11.8647 24.2639C11.8344 23.4022 11.1288 22.7097 10.2601 22.7097C9.83594 22.7097 9.42087 22.8816 9.12097 23.1815L8.21371 24.0887C8.15953 24.1429 8.11467 24.2044 8.06905 24.2654L6.48362 23.314L7.87349 18.4496L11.3579 17.6749C12.2719 17.4705 13.2356 17.5149 14.127 17.8001L14.8873 18.0433L12.3097 19.3322C11.7208 19.6273 11.3548 20.2198 11.3548 20.8785V20.9806C11.3548 21.934 12.1305 22.7097 13.0839 22.7097C13.3972 22.7097 13.7054 22.6245 13.9733 22.463L15.8952 21.3105C16.2812 21.0791 16.7994 21.1298 17.1328 21.4297L21.4937 25.3543C21.6104 25.4602 21.6774 25.6104 21.6774 25.7676C21.6774 26.0738 21.4287 26.3226 21.1225 26.3226ZM30.9677 20.3261L22.2724 24.6741C22.2442 24.6442 22.2147 24.6157 22.1837 24.588L17.8236 20.6633C17.4415 20.3185 16.9476 20.129 16.433 20.129C16.0567 20.129 15.6872 20.2313 15.3637 20.4254L13.441 21.5784C13.3332 21.6434 13.2099 21.6774 13.0839 21.6774C12.6993 21.6774 12.3871 21.3652 12.3871 20.9806V20.8785C12.3871 20.6126 12.5348 20.3742 12.7722 20.2555L15.6512 18.816C16.1439 18.5693 16.7288 18.5141 17.2598 18.6668L20.5033 19.5932L21.2888 19.6129L30.9677 14.5186V20.3261Z" fill="black"/>
</g>
<defs>
<clipPath id="clip0">
<rect width="32" height="32" fill="white"/>
</clipPath>
</defs>
</svg>
