<svg width="32" height="32" viewBox="0 0 32 32" fill="none" xmlns="http://www.w3.org/2000/svg">
<path d="M31.5312 3.10575H16.9228V0.46875C16.9228 0.209875 16.7129 0 16.454 0H13.5294C13.2706 0 13.0607 0.209875 13.0607 0.46875V3.10575H7.32431C7.06544 3.10575 6.85556 3.31563 6.85556 3.5745V7.60463C6.54619 7.7695 6.253 7.98625 6.00612 8.23575V6.85806C6.00612 6.00825 5.16069 5.31044 3.90319 5.07875V4.06119C3.90319 3.80231 3.69331 3.59244 3.43444 3.59244C2.60456 3.59244 1.76081 3.9115 1.1195 4.46781C0.397625 5.09406 0 5.96331 0 6.91538V8.87931C0 9.48538 0.9375 9.48538 0.9375 8.87931V6.91538C0.9375 5.88931 1.70106 4.7905 2.96569 4.56981V22.5513C2.23006 22.6433 1.47881 22.9375 0.939375 23.4559C0.938375 22.8176 0.9375 11.3702 0.9375 11.3702C0.9375 10.7641 0 10.7641 0 11.3702V25.9305C0 25.9568 0.0026875 25.9824 0.006875 26.0076C0.0529375 27.3825 1.325 28.41 3.00306 28.41C3.8155 28.41 4.54238 28.1787 5.07781 27.7977L5.07806 29.521C5.07831 31.105 6.6625 32 8.08156 32C9.58781 31.9998 11.0842 31.1514 11.0842 29.52L11.0831 22.8926H24.4325L14.7055 31.1744C14.3803 31.4512 14.5823 32 15.0094 32H29.1261C29.3851 32 29.5949 31.7901 29.5949 31.5312V29.2574C29.5949 28.6513 28.6574 28.6513 28.6574 29.2574V31.0625H16.2831L28.6574 20.5269V26.6714C28.6574 27.2774 29.5949 27.2774 29.5949 26.6714V22.8927H31.5312C31.7902 22.8927 32 22.6829 32 22.424V15.8813V3.5745C32 3.31563 31.7902 3.10575 31.5312 3.10575ZM31.0625 4.04325V15.4125H20.0842V4.04325H31.0625ZM15.9853 0.9375V12.9341H13.9982V11.7361H14.3386C14.9446 11.7361 14.9446 10.7986 14.3386 10.7986H13.9982V9.57031H14.7761C15.3821 9.57031 15.3821 8.63281 14.7761 8.63281H13.9982V7.4045H14.3386C14.5974 7.4045 14.8073 7.19462 14.8073 6.93575C14.8073 6.67688 14.5974 6.467 14.3386 6.467H13.9982V5.23869H14.7761C15.3821 5.23869 15.3821 4.30119 14.7761 4.30119H13.9982V3.07294H14.3386C14.9446 3.07294 14.9446 2.13544 14.3386 2.13544H13.9982V0.9375H15.9853ZM7.40375 8.36125C7.60612 8.2655 7.81838 8.19838 8.04044 8.15981L8.04331 26.1413C7.52112 26.2067 6.677 26.4118 6.01713 27.0462C6.01606 26.4167 6.01506 25.9294 6.01506 25.9161L6.01256 10.5057C6.01244 9.66575 6.52431 8.77725 7.40375 8.36125ZM10.1465 28.1522C10.1307 28.1431 10.1147 28.1342 10.0986 28.1253C9.56094 27.8302 8.859 27.6656 8.11819 27.6603L8.11812 27.0776C8.34275 27.0466 8.49362 27.0489 8.49725 27.0489C8.79075 27.0293 8.95194 26.8731 8.98081 26.5804L8.97812 9.63031C9.5995 9.78406 10.1436 10.0991 10.1437 10.4478L10.1465 28.1522ZM5.06862 6.85806V22.3259V24.5562C4.54631 24.2562 3.8405 24.0758 3.04044 24.0704V23.4875C3.26519 23.4566 3.41606 23.4589 3.41956 23.459C3.71306 23.4394 3.87425 23.2832 3.90319 22.9905V6.03744C4.61719 6.20837 5.06862 6.56287 5.06862 6.85806ZM5.06862 26.1525C5.06862 26.868 4.12269 27.4725 3.00306 27.4725C1.82819 27.4725 0.942187 26.8096 0.942187 25.9305C0.942187 25.0403 1.26487 24.1971 2.10294 23.7712V24.5594C2.13631 24.866 2.30725 25.0216 2.61569 25.0261C3.26706 24.9648 3.98712 25.0376 4.5695 25.3574C4.90556 25.5419 5.096 25.7763 5.06862 26.1525ZM8.08144 31.0625C8.08125 31.0625 8.08119 31.0625 8.08094 31.0625C6.90637 31.0625 6.02037 30.3998 6.02025 29.5209C6.02012 28.6307 6.34262 27.7873 7.18069 27.3614L7.18081 28.1496C7.21425 28.4561 7.38519 28.6117 7.69356 28.6161C8.48875 28.5414 10.1849 28.669 10.1468 29.7421C10.1469 30.4577 9.20106 31.0624 8.08144 31.0625ZM11.0812 10.4475C11.0811 9.60363 10.2328 8.90169 8.97794 8.669L8.97775 7.651C8.95088 7.36531 8.79463 7.20906 8.50894 7.18231C8.26969 7.18237 8.02944 7.20975 7.79306 7.26088V4.04325H13.0607V13.4028C13.0607 13.6616 13.2706 13.8715 13.5294 13.8715H16.454C16.7129 13.8715 16.9228 13.6616 16.9228 13.4028V4.04325H19.1467V15.8813V21.9552H11.0831L11.0812 10.4475ZM29.3227 19.0866C29.1567 19.0099 28.9614 19.0367 28.8222 19.1553L25.5336 21.9552H20.0842V16.35H31.0625V21.9552H29.5949V19.5122C29.5949 19.3294 29.4886 19.1633 29.3227 19.0866Z" fill="black"/>
<path d="M22.334 13.4323H26.6531C26.7765 13.4323 26.898 13.3818 26.985 13.2945L29.1446 11.1367C29.2326 11.0487 29.282 10.9294 29.282 10.8051L29.2814 6.49213C29.2814 6.2385 29.0662 6.02344 28.8125 6.02344L24.4929 6.02394C24.3687 6.02394 24.2495 6.07331 24.1617 6.16113L22.003 8.31806C21.9159 8.40494 21.8652 8.52706 21.8652 8.65V12.9636C21.8653 13.2225 22.0752 13.4323 22.334 13.4323ZM22.8028 9.11875H26.1844V12.4948H22.8028V9.11875ZM27.1219 11.8326V8.84431L28.3442 7.62306L28.3446 10.6109L27.1219 11.8326ZM24.6872 6.96144L27.6803 6.96106L26.4591 8.18125H23.4663L24.6872 6.96144Z" fill="black"/>
<path d="M24.5507 19.6305H22.9975C22.3915 19.6305 22.3915 20.568 22.9975 20.568H24.5507C25.1568 20.568 25.1568 19.6305 24.5507 19.6305Z" fill="black"/>
<path d="M26.9773 17.7651H22.9975C22.3915 17.7651 22.3915 18.7026 22.9975 18.7026H26.9773C27.5834 18.7026 27.5834 17.7651 26.9773 17.7651Z" fill="black"/>
<path d="M26.545 24.0818L20.8853 28.9006C20.5602 29.1774 20.7622 29.7262 21.1892 29.7262H26.8489C27.1078 29.7262 27.3176 29.5163 27.3176 29.2574V24.4387C27.3176 24.0823 26.8675 23.8071 26.545 24.0818ZM26.3801 28.7887H22.4628L26.3801 25.4534V28.7887Z" fill="black"/>
</svg>
