<svg width="32" height="34" viewBox="0 0 32 34" fill="none" xmlns="http://www.w3.org/2000/svg">
<path d="M31.5312 18.9185C31.7902 18.9185 32 18.6955 32 18.4204V17.2012C32 15.447 30.6567 14.0197 29.0056 14.0197H28.6583C29.3918 13.3143 29.8534 12.2954 29.8534 11.164C29.8534 9.03988 28.2271 7.31186 26.2279 7.31186C24.2288 7.31186 22.6024 9.03988 22.6024 11.164C22.6024 12.2954 23.0641 13.3143 23.7976 14.0197H23.4501C22.3276 14.0197 21.3154 14.6826 20.8028 15.712C20.7397 15.6911 20.6762 15.6713 20.6119 15.653L18.1104 14.9411V13.5261C19.2949 12.7749 20.0968 11.4121 20.1284 9.85084H20.6721C21.4876 9.85084 22.1511 9.14593 22.1511 8.27946C22.1511 7.5383 21.6654 6.91575 21.0146 6.75113V5.39498C21.0144 2.42018 18.7367 0 15.9369 0C13.1371 0 10.8593 2.42018 10.8593 5.39498V6.78951C10.2729 6.99829 9.84906 7.58711 9.84906 8.27946C9.84906 9.14587 10.5125 9.85084 11.328 9.85084H11.8717C11.9034 11.412 12.7052 12.7749 13.8897 13.5261V14.9411L11.3881 15.653C11.3239 15.6713 11.2603 15.6911 11.1973 15.712C10.6847 14.6826 9.67256 14.0197 8.55006 14.0197H8.20256C8.93606 13.3143 9.39769 12.2954 9.39769 11.164C9.39769 9.03988 7.77131 7.31186 5.77219 7.31186C3.77306 7.31186 2.14669 9.03988 2.14669 11.164C2.14669 12.2954 2.60831 13.3143 3.34181 14.0197H2.99437C1.34325 14.0197 0 15.4469 0 17.2012V18.4204C0 18.6955 0.209812 18.9185 0.46875 18.9185C0.727687 18.9185 0.9375 18.6955 0.9375 18.4204V17.2012C0.9375 15.9962 1.86025 15.0158 2.99437 15.0158H8.55C9.29319 15.0158 9.96469 15.4396 10.3278 16.1031C8.778 16.9958 7.76562 18.7361 7.76562 20.6696V23.3445H0.9375V20.7446C0.9375 20.4696 0.727687 20.2466 0.46875 20.2466C0.209812 20.2466 0 20.4696 0 20.7446V23.8425C0 24.1176 0.209812 24.3405 0.46875 24.3405H11.0158C10.6328 24.9757 10.3524 25.6905 10.205 26.4621C10.1536 26.7317 10.3175 26.9945 10.5712 27.0493C10.8248 27.1038 11.0724 26.9298 11.1238 26.6602C11.5919 24.2091 13.6427 22.43 16.0001 22.43C18.7436 22.43 20.9757 24.8019 20.9757 27.7173C20.9757 30.6323 18.7436 33.0039 16.0001 33.0039C13.6426 33.0039 11.5919 31.2251 11.1238 28.7744C11.0724 28.5048 10.8248 28.3307 10.5712 28.3854C10.3174 28.4401 10.1535 28.7029 10.205 28.9725C10.7614 31.8856 13.1985 34 16 34C19.2605 34 21.9131 31.1816 21.9131 27.7173C21.9131 26.4753 21.5722 25.3164 20.9846 24.3405H31.5312C31.7902 24.3405 32 24.1176 32 23.8425V20.7446C32 20.4696 31.7902 20.2466 31.5312 20.2466C31.2723 20.2466 31.0625 20.4696 31.0625 20.7446V23.3445H24.2344V20.6696C24.2344 18.7362 23.2221 16.9959 21.6722 16.1031C22.0353 15.4396 22.7068 15.0158 23.45 15.0158H29.0056C30.1397 15.0158 31.0625 15.9961 31.0625 17.2012V18.4204C31.0625 18.6955 31.2723 18.9185 31.5312 18.9185ZM3.08413 11.164C3.08413 9.5892 4.28994 8.30795 5.77212 8.30795C7.25431 8.30795 8.46012 9.58913 8.46012 11.164C8.46012 12.7353 7.2595 14.0142 5.78175 14.0197H5.7625C4.28475 14.0141 3.08413 12.7353 3.08413 11.164ZM15.0051 17.2997L14.5514 17.7014C14.3403 17.8884 14.0688 17.9458 13.8062 17.8586C13.5439 17.7714 13.3513 17.56 13.2779 17.2785L13.0032 16.2246L13.9739 15.9483C14.1336 16.5316 14.5104 17.0174 15.0051 17.2997ZM18.0261 15.9484L18.9968 16.2246L18.7221 17.2785C18.6488 17.56 18.4562 17.7714 18.1939 17.8585C17.9313 17.9456 17.6598 17.8883 17.4487 17.7014L16.9949 17.2996C17.4896 17.0174 17.8664 16.5316 18.0261 15.9484ZM21.2134 8.27946C21.2134 8.59662 20.9705 8.85474 20.672 8.85474H20.1306V7.70425H20.5457H20.6721C20.9705 7.70419 21.2134 7.96224 21.2134 8.27946ZM11.7968 5.39498C11.7968 2.96942 13.654 0.996094 15.9369 0.996094C18.2197 0.996094 20.0769 2.96942 20.0769 5.39498V6.70809H18.5254C18.0876 6.70809 17.7314 6.32964 17.7314 5.86454C17.7314 5.58948 17.5216 5.36649 17.2627 5.36649C17.0037 5.36649 16.7939 5.58948 16.7939 5.86454C16.7939 6.32964 16.4378 6.70809 16 6.70809H11.7968V5.39498ZM10.7866 8.27946C10.7866 7.96231 11.0295 7.70419 11.328 7.70419H11.8694V8.85468H11.328C11.0295 8.85468 10.7866 8.59662 10.7866 8.27946ZM12.8069 9.75521V7.70419H16C16.4974 7.70419 16.9466 7.48013 17.2627 7.122C17.5788 7.48013 18.0279 7.70419 18.5254 7.70419H19.1931V9.75521C19.1931 11.6259 17.7607 13.1478 16 13.1478C14.2393 13.1478 12.8069 11.6259 12.8069 9.75521ZM16 14.144C16.4074 14.144 16.8008 14.08 17.1728 13.9627V15.323C17.1728 16.0101 16.6467 16.569 16 16.569C15.3533 16.569 14.8272 16.0101 14.8272 15.323V13.9627C15.1993 14.08 15.5926 14.144 16 14.144ZM23.2969 20.6696V23.3445H20.2418C19.1664 22.1669 17.6624 21.4339 16 21.4339C14.3603 21.4339 12.8459 22.1592 11.7599 23.3445H8.70312V20.6696C8.70312 18.7736 9.90706 17.1063 11.6307 16.6152L12.0976 16.4823L12.3744 17.5443C12.532 18.1491 12.9627 18.622 13.5264 18.8092C13.6973 18.8659 13.8721 18.8937 14.0455 18.8937C14.4443 18.8937 14.8353 18.7466 15.1516 18.4666L16 17.7154L16.8484 18.4666C17.1648 18.7467 17.5557 18.8938 17.9545 18.8938C18.1279 18.8938 18.3027 18.866 18.4736 18.8093C19.0373 18.622 19.4679 18.1492 19.6256 17.5444L19.9024 16.4823L20.3692 16.6151C22.0929 17.1063 23.2969 18.7736 23.2969 20.6696ZM23.5399 11.164C23.5399 9.5892 24.7458 8.30795 26.2279 8.30795C27.7101 8.30795 28.9159 9.58913 28.9159 11.164C28.9159 12.7353 27.7153 14.0142 26.2376 14.0197H26.2183C24.7406 14.0141 23.5399 12.7353 23.5399 11.164Z" fill="black"/>
<path d="M15.3453 30.6682C15.765 30.6682 16.1596 30.4946 16.4565 30.1792L18.8687 27.6162C19.4813 26.9653 19.4813 25.906 18.8686 25.2549C18.2558 24.6039 17.2589 24.6041 16.6462 25.2549L15.3453 26.6372C14.7318 25.9953 13.7413 25.9983 13.1313 26.6463C12.5187 27.2972 12.5187 28.3565 13.1313 29.0075L14.2342 30.1792C14.531 30.4946 14.9256 30.6682 15.3453 30.6682ZM13.7943 27.3507C13.918 27.2193 14.0803 27.1537 14.2427 27.1537C14.405 27.1537 14.5673 27.2194 14.6909 27.3506L15.0138 27.6938C15.1017 27.7872 15.221 27.8397 15.3453 27.8397C15.4697 27.8397 15.5888 27.7872 15.6768 27.6938L17.3092 25.9593C17.5563 25.6968 17.9586 25.6966 18.2058 25.9593C18.453 26.222 18.453 26.6493 18.2058 26.9119L15.7937 29.4748C15.6739 29.6021 15.5147 29.6721 15.3453 29.6721C15.176 29.6721 15.0168 29.6021 14.8971 29.4749L13.7943 28.3033C13.5472 28.0406 13.5472 27.6133 13.7943 27.3507Z" fill="black"/>
</svg>
