<svg width="32" height="32" viewBox="0 0 32 32" fill="none" xmlns="http://www.w3.org/2000/svg">
<g clip-path="url(#clip0)">
<path d="M30.6371 15.8855L30.6134 15.8864C29.8876 15.9137 29.2611 16.4237 29.0899 17.1267L28.5877 19.1889C28.1107 21.1473 26.7986 22.7783 24.9878 23.6636C24.7752 23.7674 24.5352 23.7447 24.346 23.6024C24.1567 23.4602 24.0681 23.2361 24.1088 23.0029L24.5052 20.7323C24.6247 20.0481 24.1847 19.4052 23.5037 19.2687C22.9867 19.1653 22.4691 19.3852 22.1849 19.8292L19.619 23.8374C19.2516 23.5726 18.7351 23.6042 18.4047 23.9345L16.5435 25.7957C16.3605 25.9788 16.3605 26.2756 16.5435 26.4586L21.9477 31.8627C22.0392 31.9542 22.1592 32 22.2792 32C22.3991 32 22.5191 31.9542 22.6107 31.8627L24.4719 30.0016C24.8199 29.6534 24.8369 29.0983 24.5239 28.7291C25.1209 28.397 25.7036 28.0165 26.2565 27.597C26.4627 27.4406 26.5031 27.1465 26.3466 26.9402C26.1902 26.7341 25.8962 26.6937 25.6898 26.8502C24.7393 27.5712 23.9427 27.9751 23.8378 28.0374L20.3051 24.5047L22.9744 20.3348C23.0488 20.2186 23.1842 20.1614 23.3195 20.1881C23.4978 20.2238 23.6129 20.3921 23.5816 20.5711L23.1852 22.8417C23.0842 23.4204 23.3132 23.9991 23.7827 24.3519C24.2524 24.7048 24.8718 24.7637 25.3995 24.5058C27.4613 23.4978 28.9554 21.6407 29.4986 19.4107L30.0007 17.3486C30.1624 16.6846 31.1175 16.6537 31.0612 17.2356C30.7527 20.4162 29.3312 23.4087 27.0585 25.6618C26.8747 25.8441 26.8734 26.1409 27.0556 26.3247C27.2379 26.5085 27.5346 26.5099 27.7185 26.3276C30.1462 23.9208 31.6647 20.724 31.9942 17.326C32.0707 16.5389 31.4379 15.8571 30.6371 15.8855ZM22.2792 30.8684L17.5383 26.1275L19.0719 24.5974L23.8089 29.3386L22.2792 30.8684Z" fill="black"/>
<path d="M9.9118 7.90607L10.535 8.25144C10.5402 8.25438 10.5445 8.25857 10.5475 8.26376L11.5227 9.95263C11.5257 9.95776 11.5272 9.96363 11.527 9.96957L11.5146 10.6821C11.5085 11.0345 11.6942 11.3629 11.9995 11.5391L13.4119 12.3545C13.562 12.4413 13.7296 12.4845 13.897 12.4845C14.0701 12.4845 14.243 12.4383 14.3965 12.346L15.0076 11.9788C15.0126 11.9759 15.0183 11.9743 15.0242 11.9743H16.9745C16.9804 11.9743 16.9862 11.9759 16.9913 11.9789L17.6022 12.3461C17.9044 12.5276 18.2817 12.5309 18.5867 12.3546L19.9992 11.5391C20.3044 11.3629 20.4901 11.0346 20.4841 10.6821L20.4717 9.96957C20.4716 9.96363 20.4731 9.95782 20.476 9.95269L21.4512 8.26369C21.4542 8.25857 21.4585 8.25438 21.4635 8.25157L22.0869 7.90607C22.3951 7.73526 22.5866 7.41013 22.5866 7.0577V5.42676C22.5866 5.07438 22.3952 4.74932 22.0869 4.57838L21.4637 4.23301C21.4585 4.23007 21.4542 4.22588 21.4511 4.22063L21.3948 4.12307C21.2654 3.89895 20.9786 3.82213 20.7545 3.95163C20.5303 4.08107 20.4536 4.36776 20.5831 4.59195L20.6392 4.68938C20.7272 4.84176 20.855 4.96738 21.0091 5.05282L21.6323 5.39826C21.6427 5.40407 21.6492 5.41495 21.6492 5.42676V7.0577C21.6492 7.06951 21.6427 7.08038 21.6324 7.08613L21.0089 7.43176C20.855 7.51707 20.7272 7.64276 20.6393 7.79501L19.6641 9.48401C19.5761 9.63645 19.5312 9.81001 19.5343 9.98588L19.5467 10.6984C19.5469 10.7103 19.5407 10.7213 19.5304 10.7272L18.1179 11.5427C18.1077 11.5485 18.095 11.5484 18.0851 11.5424L17.4742 11.1753C17.3233 11.0847 17.1506 11.0368 16.9746 11.0368H15.0243C14.8482 11.0368 14.6754 11.0847 14.5247 11.1753L13.9137 11.5424C13.9037 11.5484 13.8911 11.5486 13.8809 11.5426L12.4684 10.7273C12.4582 10.7213 12.4519 10.7103 12.4521 10.6984L12.4646 9.98588C12.4676 9.81001 12.4227 9.63645 12.3347 9.48394L11.3596 7.79507C11.2717 7.64269 11.1439 7.51707 10.9898 7.43163L10.3664 7.08613C10.3561 7.08044 10.3497 7.06951 10.3497 7.0577V5.42676C10.3497 5.41495 10.3562 5.40401 10.3664 5.39832L10.99 5.0527C11.1439 4.96738 11.2717 4.84169 11.3595 4.68945L12.3348 3.00045C12.4227 2.84801 12.4676 2.67445 12.4646 2.49857L12.4521 1.78601C12.4519 1.77426 12.4581 1.76326 12.4684 1.75732L13.8809 0.941758C13.8912 0.935883 13.9037 0.936008 13.9138 0.942133L14.5248 1.30926C14.6756 1.39982 14.8484 1.44776 15.0243 1.44776H16.9746C17.1504 1.44776 17.3231 1.39988 17.4741 1.3092L18.0851 0.942133C18.0952 0.936008 18.1077 0.935883 18.118 0.94182L19.5306 1.75738C19.5407 1.76326 19.5469 1.77426 19.5467 1.78601L19.5343 2.49863C19.5317 2.64601 19.5646 2.79582 19.6292 2.93176C19.7405 3.16551 20.0202 3.26495 20.2539 3.15382C20.4877 3.04263 20.5871 2.76295 20.4759 2.5292C20.4727 2.52257 20.4717 2.51732 20.4717 2.51495L20.4841 1.80238C20.4902 1.44988 20.3044 1.12151 19.9992 0.945445L18.5867 0.129883C18.2816 -0.0464297 17.9042 -0.0432422 17.6021 0.138445L16.9914 0.505383C16.9862 0.508508 16.9804 0.510133 16.9745 0.510133H15.0242C15.0183 0.510133 15.0125 0.508508 15.0074 0.505508L14.3966 0.138508C14.0947 -0.0430547 13.7172 -0.0464922 13.412 0.12982L11.9995 0.945258C11.6943 1.12145 11.5085 1.44982 11.5146 1.80226L11.527 2.51482C11.5272 2.52076 11.5257 2.52657 11.5227 2.5317L10.5475 4.2207C10.5445 4.22582 10.5402 4.23001 10.5352 4.23282L9.91161 4.57838C9.60348 4.74932 9.41211 5.07445 9.41211 5.4267V7.05763C9.41211 7.41013 9.60355 7.7352 9.9118 7.90607Z" fill="black"/>
<path d="M16.0008 3.40747C14.4377 3.40747 13.166 4.67922 13.166 6.24235C13.166 7.80547 14.4378 9.07716 16.0008 9.07716C17.564 9.07716 18.8357 7.80541 18.8357 6.24235C18.8358 4.67916 17.564 3.40747 16.0008 3.40747ZM16.0008 8.13972C14.9546 8.13972 14.1035 7.2886 14.1035 6.24241C14.1035 5.19622 14.9546 4.34497 16.0008 4.34497C17.047 4.34497 17.8982 5.19616 17.8982 6.24235C17.8982 7.28853 17.047 8.13972 16.0008 8.13972Z" fill="black"/>
<path d="M24.5273 15.4468C25.6904 15.4468 26.6367 14.5005 26.6367 13.3375C26.6367 12.1744 25.6904 11.2281 24.5273 11.2281C23.3643 11.2281 22.418 12.1744 22.418 13.3375C22.418 14.5005 23.3643 15.4468 24.5273 15.4468ZM24.5273 12.1656C25.1735 12.1656 25.6992 12.6913 25.6992 13.3375C25.6992 13.9836 25.1735 14.5093 24.5273 14.5093C23.8812 14.5093 23.3555 13.9836 23.3555 13.3375C23.3555 12.6913 23.8812 12.1656 24.5273 12.1656Z" fill="black"/>
<path d="M21.2742 10.2616L21.2822 10.722L20.6397 11.835L20.2371 12.0582C19.9776 12.2019 19.8164 12.4755 19.8164 12.7722V13.903C19.8164 14.1995 19.9775 14.4732 20.237 14.617L20.6397 14.8402L21.2822 15.9531L21.2742 16.4136C21.269 16.7101 21.4253 16.9865 21.6822 17.1348L22.6615 17.7002C22.7878 17.7731 22.9287 17.8095 23.0697 17.8095C23.2153 17.8095 23.3608 17.7706 23.4901 17.693L23.8848 17.4558H25.1699L25.5646 17.693C25.8188 17.8457 26.1362 17.8485 26.3932 17.7002L27.3725 17.1348C27.6293 16.9865 27.7857 16.7102 27.7805 16.4136L27.7725 15.9531L28.415 14.8402L28.8179 14.6169C29.0772 14.473 29.2383 14.1995 29.2383 13.903V12.7722C29.2383 12.4755 29.0772 12.202 28.8178 12.0582L28.415 11.8349L27.7725 10.722L27.7805 10.2616C27.7857 9.96498 27.6293 9.68867 27.3725 9.54042L26.3932 8.97498C26.1365 8.82667 25.8189 8.82961 25.5646 8.98223L25.1699 9.21942H23.8848L23.4901 8.98223C23.2359 8.82954 22.9184 8.82673 22.6615 8.97498L21.6821 9.54048C21.4253 9.68873 21.269 9.9651 21.2742 10.2616ZM22.2127 10.3166L23.0683 9.8226L23.4308 10.0404C23.5578 10.1167 23.7031 10.1569 23.8512 10.1569H25.2035C25.3515 10.1569 25.4968 10.1166 25.6239 10.0404L25.9863 9.8226L26.842 10.3166L26.8346 10.7394C26.832 10.8876 26.8698 11.0338 26.9438 11.1617L27.6198 12.3325C27.6938 12.4609 27.8015 12.5667 27.931 12.6385L28.3008 12.8435V13.8316L27.9309 14.0366C27.8013 14.1085 27.6937 14.2143 27.6199 14.3423L26.9438 15.5133C26.8697 15.6416 26.832 15.7877 26.8345 15.9358L26.8419 16.3586L25.9863 16.8525L25.6238 16.6348C25.4968 16.5585 25.3515 16.5183 25.2034 16.5183H23.8512C23.7032 16.5183 23.5578 16.5586 23.4307 16.6348L23.0683 16.8525L22.2127 16.3586L22.2201 15.9358C22.2227 15.7877 22.1849 15.6416 22.1108 15.5134L21.4348 14.3426C21.3608 14.2142 21.2532 14.1084 21.1236 14.0366L20.7538 13.8317V12.8436L21.1232 12.6389C21.253 12.5671 21.3608 12.4612 21.4347 12.3329L22.1107 11.1621C22.1848 11.0339 22.2227 10.8877 22.2201 10.7394L22.2127 10.3166Z" fill="black"/>
<path d="M7.47259 15.4468C8.63566 15.4468 9.58191 14.5005 9.58191 13.3375C9.58191 12.1744 8.63566 11.2281 7.47259 11.2281C6.30953 11.2281 5.36328 12.1744 5.36328 13.3375C5.36328 14.5005 6.30953 15.4468 7.47259 15.4468ZM7.47259 12.1656C8.11872 12.1656 8.64441 12.6913 8.64441 13.3375C8.64441 13.9836 8.11872 14.5093 7.47259 14.5093C6.82647 14.5093 6.30078 13.9836 6.30078 13.3375C6.30078 12.6913 6.82647 12.1656 7.47259 12.1656Z" fill="black"/>
<path d="M3.18228 14.6168L3.58509 14.84L4.22759 15.9529L4.21947 16.4134C4.21434 16.71 4.37072 16.9863 4.62753 17.1346L5.60678 17.6999C5.86347 17.8483 6.18103 17.8455 6.43547 17.6928L6.83016 17.4556H8.11522L8.50997 17.6928C8.63922 17.7704 8.78472 17.8093 8.93047 17.8093C9.07134 17.8093 9.21228 17.7729 9.33853 17.7L10.3178 17.1346C10.5747 16.9863 10.731 16.71 10.7259 16.4133L10.7178 15.9529L11.3603 14.84L11.7632 14.6167C12.0225 14.4729 12.1837 14.1993 12.1837 13.9028V12.772C12.1837 12.4754 12.0225 12.2018 11.7632 12.058L11.3603 11.8347L10.7178 10.7219L10.7259 10.2614C10.731 9.96486 10.5747 9.68849 10.3178 9.54024L9.33859 8.97486C9.08184 8.82642 8.76434 8.8293 8.51003 8.98205L8.11522 9.21924H6.83016L6.43534 8.98199C6.18103 8.82924 5.86359 8.82661 5.60684 8.9748L4.62759 9.54024C4.37072 9.68849 4.21434 9.96486 4.21947 10.2615L4.22759 10.7219L3.58509 11.8347L3.18234 12.058C2.92291 12.2018 2.76172 12.4754 2.76172 12.772V13.9028C2.76172 14.1994 2.92284 14.4729 3.18228 14.6168ZM3.69922 12.8434L4.06859 12.6387C4.19822 12.567 4.30597 12.4612 4.38016 12.3327L5.05634 11.1615C5.13034 11.0333 5.16809 10.8872 5.16553 10.7392L5.15809 10.3165L6.01378 9.82248L6.37609 10.0402C6.50303 10.1165 6.64841 10.1568 6.79659 10.1568H8.14891C8.29703 10.1568 8.44241 10.1164 8.56928 10.0402L8.93178 9.82248L9.78741 10.3165L9.77997 10.7392C9.77741 10.8872 9.81516 11.0333 9.88922 11.1616L10.5654 12.3328C10.6396 12.4612 10.7473 12.567 10.8769 12.6387L11.2463 12.8435V13.8315L10.8765 14.0365C10.747 14.1082 10.6394 14.214 10.5653 14.3423L9.88909 15.5136C9.81509 15.6419 9.77741 15.7879 9.77997 15.9359L9.78741 16.3585L8.93172 16.8525L8.56941 16.6348C8.44247 16.5585 8.29709 16.5182 8.14891 16.5182H6.79659C6.64847 16.5182 6.50309 16.5586 6.37622 16.6348L6.01378 16.8525L5.15809 16.3585L5.16553 15.9358C5.16809 15.7879 5.13041 15.6419 5.05628 15.5134L4.38009 14.3422C4.30603 14.214 4.19847 14.1083 4.06891 14.0365L3.69916 13.8315V12.8434H3.69922Z" fill="black"/>
<path d="M13.5958 23.9343C13.2654 23.604 12.7489 23.5723 12.3815 23.8371L9.81567 19.829C9.53149 19.385 9.01349 19.1646 8.4968 19.2686C7.8158 19.405 7.3758 20.0479 7.4953 20.7321L7.89168 23.0027C7.93236 23.2358 7.84374 23.4599 7.65449 23.6022C7.46536 23.7444 7.2253 23.7672 7.01268 23.6633C5.20186 22.7779 3.88974 21.1469 3.4128 19.1886L2.91055 17.1264C2.73936 16.4234 2.11286 15.9134 1.38674 15.8861L1.36374 15.8853C0.569113 15.8548 -0.0703871 16.5343 0.00623785 17.3258C0.4718 22.1264 3.26368 26.3854 7.47693 28.7286C7.16368 29.0978 7.18043 29.6531 7.52868 30.0014L9.38986 31.8626C9.48143 31.9541 9.60136 31.9998 9.72136 31.9998C9.8413 31.9998 9.9613 31.9541 10.0528 31.8626L12.1329 29.7826C12.316 29.5994 12.316 29.3027 12.1329 29.1196C11.9499 28.9367 11.6531 28.9366 11.47 29.1196L9.72174 30.8679L8.19168 29.3344L12.9329 24.5973L14.4627 26.1271L12.7952 27.7944C12.6121 27.9776 12.6121 28.2743 12.7952 28.4574C12.9783 28.6403 13.2751 28.6405 13.458 28.4574L15.4569 26.4586C15.5449 26.3706 15.5942 26.2515 15.5942 26.1271C15.5942 26.0027 15.5449 25.8836 15.457 25.7956L13.5958 23.9343ZM0.939363 17.2353C0.91705 17.005 1.10555 16.8118 1.32874 16.8223C1.33499 16.8225 1.35824 16.8233 1.35199 16.8231C1.6658 16.8349 1.92611 17.0459 1.99968 17.3483L2.50193 19.4105C3.04499 21.6405 4.53905 23.4975 6.60093 24.5056C7.12861 24.7635 7.74818 24.7046 8.21768 24.3517C8.6873 23.9988 8.91624 23.4202 8.81524 22.8415L8.41886 20.5709C8.38755 20.3918 8.50274 20.2236 8.68093 20.1878C8.81649 20.1608 8.95168 20.2183 9.02605 20.3346L11.6954 24.5044L8.16267 28.0372C8.10592 27.9845 1.68974 24.9726 0.939363 17.2353Z" fill="black"/>
</g>
<defs>
<clipPath id="clip0">
<rect width="32" height="32" fill="white"/>
</clipPath>
</defs>
</svg>
